<svg width="14" height="14" viewBox="0 0 14 14" fill="none" xmlns="http://www.w3.org/2000/svg">
<path className="svg-icon" d="M6.08276 4.99967H7.4161V3.66634H6.08276M6.74943 12.333C3.80943 12.333 1.4161 9.93967 1.4161 6.99967C1.4161 4.05967 3.80943 1.66634 6.74943 1.66634C9.68943 1.66634 12.0828 4.05967 12.0828 6.99967C12.0828 9.93967 9.68943 12.333 6.74943 12.333ZM6.74943 0.333008C5.87395 0.333008 5.00704 0.505446 4.19821 0.840478C3.38937 1.17551 2.65444 1.66657 2.03539 2.28563C0.785143 3.53587 0.0827637 5.23156 0.0827637 6.99967C0.0827637 8.76778 0.785143 10.4635 2.03539 11.7137C2.65444 12.3328 3.38937 12.8238 4.19821 13.1589C5.00704 13.4939 5.87395 13.6663 6.74943 13.6663C8.51754 13.6663 10.2132 12.964 11.4635 11.7137C12.7137 10.4635 13.4161 8.76778 13.4161 6.99967C13.4161 6.1242 13.2437 5.25729 12.9086 4.44845C12.5736 3.63961 12.0825 2.90469 11.4635 2.28563C10.8444 1.66657 10.1095 1.17551 9.30065 0.840478C8.49182 0.505446 7.62491 0.333008 6.74943 0.333008ZM6.08276 10.333H7.4161V6.33301H6.08276V10.333Z" fill="white"/>
</svg>
