<svg width="18" height="20" viewBox="0 0 18 20" fill="none" xmlns="http://www.w3.org/2000/svg">
<path fill-rule="evenodd" clip-rule="evenodd" d="M0.292893 7.38906C-0.0976311 6.99854 -0.0976311 6.36537 0.292893 5.97485L5.65685 0.610886C6.04738 0.220362 6.68054 0.220362 7.07107 0.610886C7.46159 1.00141 7.46159 1.63458 7.07107 2.0251L3.41421 5.68195H11C14.866 5.68195 18 8.81596 18 12.682C18 16.5479 14.866 19.682 11 19.682H10C9.44771 19.682 9 19.2342 9 18.682C9 18.1297 9.44771 17.682 10 17.682H11C13.7614 17.682 16 15.4434 16 12.682C16 9.92053 13.7614 7.68195 11 7.68195H3.41421L7.07107 11.3388C7.46159 11.7293 7.46159 12.3625 7.07107 12.753C6.68054 13.1435 6.04738 13.1435 5.65685 12.753L0.292893 7.38906Z" fill="#64b54d"/>
</svg>
