<svg width="13" height="13" viewBox="0 0 17 16" fill="none" xmlns="http://www.w3.org/2000/svg">
<path className="svg-icon" d="M16.5 8C16.5 12.4375 12.9062 16 8.5 16C4.0625 16 0.5 12.4375 0.5 8C0.5 3.59375 4.0625 0 8.5 0C12.9062 0 16.5 3.59375 16.5 8ZM3.59375 4.53125C2.90625 5.53125 2.5 6.71875 2.5 8C2.5 11.3125 5.15625 14 8.5 14C9.78125 14 10.9688 13.5938 11.9688 12.9062L3.59375 4.53125ZM14.5 8C14.5 4.6875 11.8125 2 8.5 2C7.1875 2 6 2.4375 5 3.125L13.375 11.5C14.0625 10.5 14.5 9.3125 14.5 8Z" fill="#D1334A"/>
</svg>
