<svg width="16" height="17" viewBox="0 0 16 17" fill="none" xmlns="http://www.w3.org/2000/svg">
<path d="M7.97023 14.2084C6.08789 14.2084 4.20342 14.2084 2.32108 14.2084C1.83353 14.2084 1.32903 14.1885 1.09374 13.654C0.862682 13.1239 1.09374 12.6514 1.40746 12.2278C1.54736 12.0393 1.68515 11.8397 1.86109 11.6911C2.73019 10.9547 2.94217 9.93887 3.05239 8.85207C3.16262 7.75861 3.25377 6.65407 3.49966 5.58945C3.77735 4.38288 4.47051 3.44912 5.60246 2.91681C5.78052 2.83252 5.92467 2.59742 6.02006 2.3978C6.43129 1.53502 7.05662 1.00049 7.99991 1.00049C8.9432 1.00049 9.56641 1.53945 9.97765 2.40002C10.073 2.59964 10.2172 2.83252 10.3952 2.91902C11.7264 3.55114 12.3709 4.71557 12.6379 6.12398C12.8202 7.09323 12.8754 8.08909 12.9729 9.07386C13.0683 10.0498 13.3184 10.9325 14.0582 11.6223C14.3783 11.9217 14.656 12.3054 14.8531 12.7069C15.2283 13.4676 14.8595 14.133 14.0433 14.1885C13.3777 14.2351 12.7058 14.2084 12.0381 14.2107C10.6835 14.2107 9.329 14.2107 7.97235 14.2107L7.97023 14.2084Z" stroke="#5E5E5E" stroke-miterlimit="10"/>
<path d="M10.5996 14.3615C10.3653 15.579 9.29084 16.5007 7.99836 16.5007C6.70587 16.5007 5.63142 15.579 5.39707 14.3614C5.94143 14.3613 6.79747 14.3613 7.99836 14.3613C9.43195 14.3613 9.83929 14.3613 10.5996 14.3615Z" stroke="#5E5E5E"/>
</svg>
