<svg width="1440" height="36" viewBox="0 0 1440 36" fill="none" xmlns="http://www.w3.org/2000/svg">
<rect width="1440" height="36" fill="white"/>
<path d="M72.9588 22V13.2727H74.2756V17.0653H78.6264V13.2727H79.9474V22H78.6264V18.1946H74.2756V22H72.9588ZM84.5199 22.1321C83.9063 22.1321 83.3707 21.9915 82.9134 21.7102C82.456 21.429 82.1009 21.0355 81.848 20.5298C81.5952 20.0241 81.4688 19.4332 81.4688 18.7571C81.4688 18.0781 81.5952 17.4844 81.848 16.9759C82.1009 16.4673 82.456 16.0724 82.9134 15.7912C83.3707 15.5099 83.9063 15.3693 84.5199 15.3693C85.1335 15.3693 85.669 15.5099 86.1264 15.7912C86.5838 16.0724 86.9389 16.4673 87.1918 16.9759C87.4446 17.4844 87.571 18.0781 87.571 18.7571C87.571 19.4332 87.4446 20.0241 87.1918 20.5298C86.9389 21.0355 86.5838 21.429 86.1264 21.7102C85.669 21.9915 85.1335 22.1321 84.5199 22.1321ZM84.5241 21.0625C84.9219 21.0625 85.2514 20.9574 85.5128 20.7472C85.7741 20.5369 85.9673 20.2571 86.0923 19.9077C86.2202 19.5582 86.2841 19.1733 86.2841 18.7528C86.2841 18.3352 86.2202 17.9517 86.0923 17.6023C85.9673 17.25 85.7741 16.9673 85.5128 16.7543C85.2514 16.5412 84.9219 16.4347 84.5241 16.4347C84.1236 16.4347 83.7912 16.5412 83.527 16.7543C83.2656 16.9673 83.071 17.25 82.9432 17.6023C82.8182 17.9517 82.7557 18.3352 82.7557 18.7528C82.7557 19.1733 82.8182 19.5582 82.9432 19.9077C83.071 20.2571 83.2656 20.5369 83.527 20.7472C83.7912 20.9574 84.1236 21.0625 84.5241 21.0625ZM88.9933 22V15.4545H90.2163V16.5199H90.2972C90.4336 16.1591 90.6566 15.8778 90.9663 15.6761C91.2759 15.4716 91.6467 15.3693 92.0785 15.3693C92.516 15.3693 92.8825 15.4716 93.1779 15.6761C93.4762 15.8807 93.6964 16.1619 93.8384 16.5199H93.9066C94.0629 16.1705 94.3114 15.892 94.6523 15.6847C94.9933 15.4744 95.3995 15.3693 95.8711 15.3693C96.4648 15.3693 96.9492 15.5554 97.3242 15.9276C97.7021 16.2997 97.891 16.8608 97.891 17.6108V22H96.6168V17.7301C96.6168 17.2869 96.4961 16.9659 96.2546 16.767C96.0131 16.5682 95.7248 16.4688 95.3896 16.4688C94.9748 16.4688 94.6523 16.5966 94.4222 16.8523C94.1921 17.1051 94.0771 17.4304 94.0771 17.8281V22H92.8072V17.6491C92.8072 17.294 92.6964 17.0085 92.4748 16.7926C92.2532 16.5767 91.9648 16.4688 91.6097 16.4688C91.3683 16.4688 91.1452 16.5327 90.9407 16.6605C90.739 16.7855 90.5756 16.9602 90.4506 17.1847C90.3285 17.4091 90.2674 17.669 90.2674 17.9645V22H88.9933ZM102.42 22.1321C101.775 22.1321 101.219 21.9943 100.754 21.7188C100.29 21.4403 99.9325 21.0497 99.6797 20.5469C99.4297 20.0412 99.3047 19.4489 99.3047 18.7699C99.3047 18.0994 99.4297 17.5085 99.6797 16.9972C99.9325 16.4858 100.285 16.0866 100.737 15.7997C101.191 15.5128 101.722 15.3693 102.33 15.3693C102.7 15.3693 103.058 15.4304 103.404 15.5526C103.751 15.6747 104.062 15.8665 104.337 16.1278C104.613 16.3892 104.83 16.7287 104.989 17.1463C105.148 17.5611 105.228 18.0653 105.228 18.6591V19.1108H100.025V18.1562H103.979C103.979 17.821 103.911 17.5241 103.775 17.2656C103.638 17.0043 103.447 16.7983 103.2 16.6477C102.955 16.4972 102.668 16.4219 102.339 16.4219C101.981 16.4219 101.668 16.5099 101.401 16.6861C101.137 16.8594 100.933 17.0866 100.788 17.3679C100.646 17.6463 100.575 17.9489 100.575 18.2756V19.0213C100.575 19.4588 100.651 19.831 100.805 20.1378C100.961 20.4446 101.178 20.679 101.457 20.8409C101.735 21 102.06 21.0795 102.433 21.0795C102.674 21.0795 102.894 21.0455 103.093 20.9773C103.292 20.9062 103.464 20.8011 103.609 20.6619C103.754 20.5227 103.864 20.3509 103.941 20.1463L105.147 20.3636C105.05 20.7187 104.877 21.0298 104.627 21.2969C104.38 21.5611 104.069 21.767 103.694 21.9148C103.322 22.0597 102.897 22.1321 102.42 22.1321Z" fill="#6B7280"/>
<path d="M114 15L117 18L114 20.9999" stroke="#9CA3AF" stroke-width="1.5" stroke-linecap="round" stroke-linejoin="round"/>
<path d="M129.784 22H126.959V13.2727H129.874C130.729 13.2727 131.463 13.4474 132.077 13.7969C132.69 14.1435 133.161 14.642 133.487 15.2926C133.817 15.9403 133.982 16.7173 133.982 17.6236C133.982 18.5327 133.815 19.3139 133.483 19.9673C133.153 20.6207 132.676 21.1236 132.051 21.4759C131.426 21.8253 130.67 22 129.784 22ZM128.276 20.8494H129.712C130.376 20.8494 130.929 20.7244 131.369 20.4744C131.81 20.2216 132.139 19.8565 132.358 19.3793C132.577 18.8991 132.686 18.3139 132.686 17.6236C132.686 16.9389 132.577 16.358 132.358 15.8807C132.142 15.4034 131.82 15.0412 131.391 14.794C130.962 14.5469 130.429 14.4233 129.793 14.4233H128.276V20.8494ZM137.422 22.1449C137.007 22.1449 136.632 22.0682 136.297 21.9148C135.961 21.7585 135.696 21.5327 135.5 21.2372C135.306 20.9418 135.21 20.5795 135.21 20.1506C135.21 19.7812 135.281 19.4773 135.423 19.2386C135.565 19 135.757 18.8111 135.998 18.6719C136.24 18.5327 136.51 18.4276 136.808 18.3565C137.106 18.2855 137.41 18.2315 137.72 18.1946C138.112 18.1491 138.43 18.1122 138.674 18.0838C138.919 18.0526 139.096 18.0028 139.207 17.9347C139.318 17.8665 139.373 17.7557 139.373 17.6023V17.5724C139.373 17.2003 139.268 16.9119 139.058 16.7074C138.85 16.5028 138.541 16.4006 138.129 16.4006C137.7 16.4006 137.362 16.4957 137.115 16.6861C136.87 16.8736 136.701 17.0824 136.608 17.3125L135.41 17.0398C135.552 16.642 135.76 16.321 136.032 16.0767C136.308 15.8295 136.625 15.6506 136.983 15.5398C137.341 15.4261 137.717 15.3693 138.112 15.3693C138.373 15.3693 138.65 15.4006 138.943 15.4631C139.238 15.5227 139.514 15.6335 139.77 15.7955C140.028 15.9574 140.24 16.1889 140.404 16.4901C140.569 16.7884 140.652 17.1761 140.652 17.6534V22H139.407V21.1051H139.356C139.274 21.2699 139.15 21.4318 138.985 21.5909C138.821 21.75 138.609 21.8821 138.35 21.9872C138.092 22.0923 137.782 22.1449 137.422 22.1449ZM137.699 21.1222C138.051 21.1222 138.352 21.0526 138.602 20.9134C138.855 20.7741 139.047 20.5923 139.177 20.3679C139.311 20.1406 139.377 19.8977 139.377 19.6392V18.7955C139.332 18.8409 139.244 18.8835 139.113 18.9233C138.985 18.9602 138.839 18.9929 138.674 19.0213C138.51 19.0469 138.349 19.071 138.193 19.0938C138.037 19.1136 137.906 19.1307 137.801 19.1449C137.554 19.1761 137.328 19.2287 137.123 19.3026C136.922 19.3764 136.76 19.483 136.637 19.6222C136.518 19.7585 136.458 19.9403 136.458 20.1676C136.458 20.483 136.575 20.7216 136.808 20.8835C137.041 21.0426 137.338 21.1222 137.699 21.1222ZM147.254 17.0526L146.099 17.2571C146.05 17.1094 145.974 16.9687 145.869 16.8352C145.766 16.7017 145.627 16.5923 145.451 16.5071C145.275 16.4219 145.055 16.3793 144.79 16.3793C144.43 16.3793 144.129 16.4602 143.887 16.6222C143.646 16.7812 143.525 16.9872 143.525 17.2401C143.525 17.4588 143.606 17.6349 143.768 17.7685C143.93 17.902 144.191 18.0114 144.552 18.0966L145.592 18.3352C146.194 18.4744 146.643 18.6889 146.938 18.9787C147.234 19.2685 147.381 19.6449 147.381 20.108C147.381 20.5 147.268 20.8494 147.04 21.1562C146.816 21.4602 146.502 21.6989 146.099 21.8722C145.698 22.0455 145.234 22.1321 144.705 22.1321C143.972 22.1321 143.374 21.9759 142.911 21.6634C142.448 21.348 142.164 20.9006 142.059 20.321L143.29 20.1335C143.367 20.4545 143.525 20.6974 143.763 20.8622C144.002 21.0241 144.313 21.1051 144.697 21.1051C145.114 21.1051 145.448 21.0185 145.698 20.8452C145.948 20.669 146.073 20.4545 146.073 20.2017C146.073 19.9972 145.996 19.8253 145.843 19.6861C145.692 19.5469 145.461 19.4418 145.148 19.3707L144.04 19.1278C143.43 18.9886 142.978 18.767 142.685 18.4631C142.396 18.1591 142.251 17.7741 142.251 17.3082C142.251 16.9219 142.359 16.5838 142.575 16.294C142.79 16.0043 143.089 15.7784 143.469 15.6165C143.85 15.4517 144.286 15.3693 144.778 15.3693C145.485 15.3693 146.042 15.5227 146.448 15.8295C146.854 16.1335 147.123 16.5412 147.254 17.0526ZM150.056 18.1136V22H148.782V13.2727H150.039V16.5199H150.12C150.274 16.1676 150.508 15.8878 150.824 15.6804C151.139 15.473 151.551 15.3693 152.059 15.3693C152.508 15.3693 152.9 15.4616 153.235 15.6463C153.574 15.831 153.835 16.1065 154.02 16.473C154.207 16.8366 154.301 17.2912 154.301 17.8366V22H153.027V17.9901C153.027 17.5099 152.903 17.1378 152.656 16.8736C152.409 16.6065 152.065 16.473 151.625 16.473C151.324 16.473 151.054 16.5369 150.815 16.6648C150.579 16.7926 150.393 16.9801 150.257 17.2273C150.123 17.4716 150.056 17.767 150.056 18.1136ZM156.103 22V13.2727H157.377V16.5156H157.454C157.528 16.3793 157.635 16.2216 157.774 16.0426C157.913 15.8636 158.106 15.7074 158.353 15.5739C158.6 15.4375 158.927 15.3693 159.333 15.3693C159.862 15.3693 160.333 15.5028 160.748 15.7699C161.163 16.0369 161.488 16.4219 161.724 16.9247C161.963 17.4276 162.082 18.0327 162.082 18.7401C162.082 19.4474 161.964 20.054 161.728 20.5597C161.493 21.0625 161.169 21.4503 160.757 21.723C160.345 21.9929 159.875 22.1278 159.346 22.1278C158.949 22.1278 158.623 22.0611 158.37 21.9276C158.12 21.794 157.924 21.6378 157.782 21.4588C157.64 21.2798 157.531 21.1207 157.454 20.9815H157.348V22H156.103ZM157.352 18.7273C157.352 19.1875 157.419 19.5909 157.552 19.9375C157.686 20.2841 157.879 20.5554 158.132 20.7514C158.385 20.9446 158.694 21.0412 159.061 21.0412C159.441 21.0412 159.76 20.9403 160.015 20.7386C160.271 20.5341 160.464 20.2571 160.595 19.9077C160.728 19.5582 160.795 19.1648 160.795 18.7273C160.795 18.2955 160.73 17.9077 160.599 17.5639C160.471 17.2202 160.278 16.9489 160.02 16.75C159.764 16.5511 159.444 16.4517 159.061 16.4517C158.691 16.4517 158.379 16.5469 158.123 16.7372C157.87 16.9276 157.679 17.1932 157.548 17.5341C157.417 17.875 157.352 18.2727 157.352 18.7273ZM166.27 22.1321C165.656 22.1321 165.121 21.9915 164.663 21.7102C164.206 21.429 163.851 21.0355 163.598 20.5298C163.345 20.0241 163.219 19.4332 163.219 18.7571C163.219 18.0781 163.345 17.4844 163.598 16.9759C163.851 16.4673 164.206 16.0724 164.663 15.7912C165.121 15.5099 165.656 15.3693 166.27 15.3693C166.884 15.3693 167.419 15.5099 167.876 15.7912C168.334 16.0724 168.689 16.4673 168.942 16.9759C169.195 17.4844 169.321 18.0781 169.321 18.7571C169.321 19.4332 169.195 20.0241 168.942 20.5298C168.689 21.0355 168.334 21.429 167.876 21.7102C167.419 21.9915 166.884 22.1321 166.27 22.1321ZM166.274 21.0625C166.672 21.0625 167.001 20.9574 167.263 20.7472C167.524 20.5369 167.717 20.2571 167.842 19.9077C167.97 19.5582 168.034 19.1733 168.034 18.7528C168.034 18.3352 167.97 17.9517 167.842 17.6023C167.717 17.25 167.524 16.9673 167.263 16.7543C167.001 16.5412 166.672 16.4347 166.274 16.4347C165.874 16.4347 165.541 16.5412 165.277 16.7543C165.016 16.9673 164.821 17.25 164.693 17.6023C164.568 17.9517 164.506 18.3352 164.506 18.7528C164.506 19.1733 164.568 19.5582 164.693 19.9077C164.821 20.2571 165.016 20.5369 165.277 20.7472C165.541 20.9574 165.874 21.0625 166.274 21.0625ZM172.648 22.1449C172.233 22.1449 171.858 22.0682 171.523 21.9148C171.188 21.7585 170.922 21.5327 170.726 21.2372C170.533 20.9418 170.436 20.5795 170.436 20.1506C170.436 19.7812 170.507 19.4773 170.65 19.2386C170.792 19 170.983 18.8111 171.225 18.6719C171.466 18.5327 171.736 18.4276 172.034 18.3565C172.333 18.2855 172.637 18.2315 172.946 18.1946C173.338 18.1491 173.657 18.1122 173.901 18.0838C174.145 18.0526 174.323 18.0028 174.434 17.9347C174.544 17.8665 174.6 17.7557 174.6 17.6023V17.5724C174.6 17.2003 174.495 16.9119 174.284 16.7074C174.077 16.5028 173.767 16.4006 173.355 16.4006C172.926 16.4006 172.588 16.4957 172.341 16.6861C172.097 16.8736 171.928 17.0824 171.834 17.3125L170.637 17.0398C170.779 16.642 170.986 16.321 171.259 16.0767C171.534 15.8295 171.851 15.6506 172.209 15.5398C172.567 15.4261 172.944 15.3693 173.338 15.3693C173.6 15.3693 173.877 15.4006 174.169 15.4631C174.465 15.5227 174.74 15.6335 174.996 15.7955C175.255 15.9574 175.466 16.1889 175.631 16.4901C175.796 16.7884 175.878 17.1761 175.878 17.6534V22H174.634V21.1051H174.583C174.5 21.2699 174.377 21.4318 174.212 21.5909C174.047 21.75 173.836 21.8821 173.577 21.9872C173.319 22.0923 173.009 22.1449 172.648 22.1449ZM172.925 21.1222C173.277 21.1222 173.578 21.0526 173.828 20.9134C174.081 20.7741 174.273 20.5923 174.404 20.3679C174.537 20.1406 174.604 19.8977 174.604 19.6392V18.7955C174.559 18.8409 174.471 18.8835 174.34 18.9233C174.212 18.9602 174.066 18.9929 173.901 19.0213C173.736 19.0469 173.576 19.071 173.419 19.0938C173.263 19.1136 173.132 19.1307 173.027 19.1449C172.78 19.1761 172.554 19.2287 172.35 19.3026C172.148 19.3764 171.986 19.483 171.864 19.6222C171.745 19.7585 171.685 19.9403 171.685 20.1676C171.685 20.483 171.801 20.7216 172.034 20.8835C172.267 21.0426 172.564 21.1222 172.925 21.1222ZM177.575 22V15.4545H178.807V16.4943H178.875C178.994 16.142 179.205 15.8651 179.506 15.6634C179.81 15.4588 180.153 15.3565 180.537 15.3565C180.616 15.3565 180.71 15.3594 180.818 15.3651C180.929 15.3707 181.016 15.3778 181.078 15.3864V16.6051C181.027 16.5909 180.936 16.5753 180.805 16.5582C180.675 16.5384 180.544 16.5284 180.413 16.5284C180.112 16.5284 179.844 16.5923 179.608 16.7202C179.375 16.8452 179.19 17.0199 179.054 17.2443C178.918 17.4659 178.849 17.7187 178.849 18.0028V22H177.575ZM184.397 22.1278C183.868 22.1278 183.397 21.9929 182.982 21.723C182.57 21.4503 182.246 21.0625 182.01 20.5597C181.777 20.054 181.661 19.4474 181.661 18.7401C181.661 18.0327 181.779 17.4276 182.015 16.9247C182.253 16.4219 182.58 16.0369 182.995 15.7699C183.409 15.5028 183.88 15.3693 184.405 15.3693C184.811 15.3693 185.138 15.4375 185.385 15.5739C185.635 15.7074 185.828 15.8636 185.965 16.0426C186.104 16.2216 186.212 16.3793 186.289 16.5156H186.365V13.2727H187.64V22H186.395V20.9815H186.289C186.212 21.1207 186.101 21.2798 185.956 21.4588C185.814 21.6378 185.618 21.794 185.368 21.9276C185.118 22.0611 184.794 22.1278 184.397 22.1278ZM184.678 21.0412C185.044 21.0412 185.354 20.9446 185.607 20.7514C185.863 20.5554 186.056 20.2841 186.186 19.9375C186.32 19.5909 186.387 19.1875 186.387 18.7273C186.387 18.2727 186.321 17.875 186.191 17.5341C186.06 17.1932 185.868 16.9276 185.615 16.7372C185.363 16.5469 185.05 16.4517 184.678 16.4517C184.294 16.4517 183.975 16.5511 183.719 16.75C183.463 16.9489 183.27 17.2202 183.14 17.5639C183.012 17.9077 182.948 18.2955 182.948 18.7273C182.948 19.1648 183.013 19.5582 183.144 19.9077C183.275 20.2571 183.468 20.5341 183.723 20.7386C183.982 20.9403 184.3 21.0412 184.678 21.0412Z" fill="#1A213D"/>
</svg>
