<svg width="40" height="40" viewBox="0 0 40 40" fill="none" xmlns="http://www.w3.org/2000/svg">
<rect x="0.5" y="0.5" width="39" height="39" rx="3.5" fill="white"/>
<path d="M27.625 25.9315C28.075 26.4299 28.075 27.1776 27.625 27.6262C27.125 28.1246 26.375 28.1246 25.925 27.6262L20.025 21.6947L14.075 27.6262C13.575 28.1246 12.825 28.1246 12.375 27.6262C11.875 27.1776 11.875 26.4299 12.375 25.9315L18.325 20L12.375 14.0685C11.875 13.5701 11.875 12.8224 12.375 12.3738C12.825 11.8754 13.575 11.8754 14.025 12.3738L20.025 18.3551L25.975 12.4237C26.425 11.9252 27.175 11.9252 27.625 12.4237C28.125 12.8723 28.125 13.6199 27.625 14.1184L21.675 20L27.625 25.9315Z" fill="#1F2937"/>
<rect x="0.5" y="0.5" width="39" height="39" rx="3.5" stroke="#D1D5DB"/>
</svg>
