<svg width="16" height="19" viewBox="0 0 16 19" fill="none" xmlns="http://www.w3.org/2000/svg">
<path d="M5.34375 3H10.4062V1.59375C10.4062 1.13672 10.7578 0.75 11.25 0.75C11.707 0.75 12.0938 1.13672 12.0938 1.59375V3H13.5C14.7305 3 15.75 4.01953 15.75 5.25V16.5C15.75 17.7656 14.7305 18.75 13.5 18.75H2.25C0.984375 18.75 0 17.7656 0 16.5V5.25C0 4.01953 0.984375 3 2.25 3H3.65625V1.59375C3.65625 1.13672 4.00781 0.75 4.5 0.75C4.95703 0.75 5.34375 1.13672 5.34375 1.59375V3ZM1.6875 16.5C1.6875 16.8164 1.93359 17.0625 2.25 17.0625H13.5C13.7812 17.0625 14.0625 16.8164 14.0625 16.5V7.5H1.6875V16.5Z" fill="#6B7280"/>
</svg>
