<svg width="16" height="18" viewBox="0 0 16 18" fill="none" xmlns="http://www.w3.org/2000/svg">
<path className="svg-icon" d="M10.4916 9.09501L10.4912 9.09536L7.21345 12.3783L5.50966 10.6888C5.38758 10.5677 5.21848 10.5104 5.0542 10.5104C4.88991 10.5104 4.72082 10.5677 4.59874 10.6888C4.3584 10.9271 4.3584 11.3561 4.59874 11.5944L6.7416 13.7194C6.86368 13.8405 7.03277 13.8979 7.19706 13.8979C7.36134 13.8979 7.53044 13.8405 7.65251 13.7194L11.4025 10.0007C11.6429 9.76236 11.6429 9.33335 11.4025 9.09501C11.2804 8.97395 11.1113 8.9166 10.9471 8.9166C10.7828 8.9166 10.6137 8.97395 10.4916 9.09501ZM10.8638 2.525H4.63523V1.03125C4.63523 0.865617 4.55274 0.708568 4.43823 0.59501C4.32367 0.4814 4.16567 0.4 3.99951 0.4C3.63975 0.4 3.3638 0.713647 3.3638 1.03125V2.525H2.39237C1.13155 2.525 0.149512 3.53289 0.149512 4.75V15.375C0.149512 16.6263 1.13257 17.6 2.39237 17.6H13.1067C14.3319 17.6 15.3495 16.6273 15.3495 15.375V4.75C15.3495 3.53187 14.333 2.525 13.1067 2.525H12.1352V1.03125C12.1352 0.865617 12.0527 0.708568 11.9382 0.59501C11.8237 0.4814 11.6657 0.4 11.4995 0.4C11.1397 0.4 10.8638 0.713647 10.8638 1.03125V2.525ZM2.39237 16.3375C1.84413 16.3375 1.42094 15.9166 1.42094 15.375V6.975H14.0781V15.375C14.0781 15.9146 13.6235 16.3375 13.1067 16.3375H2.39237ZM1.42094 5.7125V4.75C1.42094 4.23953 1.84615 3.7875 2.39237 3.7875H13.1067C13.6214 3.7875 14.0781 4.24156 14.0781 4.75V5.7125H1.42094Z" fill="white" stroke="white" stroke-width="0.2"/>
</svg>
