<svg width="14" height="15" viewBox="0 0 14 15" fill="none" xmlns="http://www.w3.org/2000/svg">
<path d="M3.94507 0.75C4.16382 0.75 4.38257 0.96875 4.38257 1.1875V2.5H9.63257V1.1875C9.63257 0.96875 9.82397 0.75 10.0701 0.75C10.2888 0.75 10.5076 0.96875 10.5076 1.1875V2.5H11.3826C12.3396 2.5 13.1326 3.29297 13.1326 4.25V13C13.1326 13.9844 12.3396 14.75 11.3826 14.75H2.63257C1.64819 14.75 0.882568 13.9844 0.882568 13V4.25C0.882568 3.29297 1.64819 2.5 2.63257 2.5H3.50757V1.1875C3.50757 0.96875 3.69897 0.75 3.94507 0.75ZM12.2576 6H1.75757V13C1.75757 13.4922 2.14038 13.875 2.63257 13.875H11.3826C11.8474 13.875 12.2576 13.4922 12.2576 13V6ZM11.3826 3.375H2.63257C2.14038 3.375 1.75757 3.78516 1.75757 4.25V5.125H12.2576V4.25C12.2576 3.78516 11.8474 3.375 11.3826 3.375Z" fill="#717F8C"/>
</svg>
