<svg width="20" height="21" viewBox="0 0 20 21" fill="none" xmlns="http://www.w3.org/2000/svg">
<path d="M10.7812 6.28125C11.1719 6.32031 11.5625 6.4375 11.9141 6.55469C11.9922 6.55469 12.0703 6.59375 12.1484 6.59375C12.5781 6.75 12.8516 7.21875 12.7344 7.64844C12.6172 8.11719 12.1484 8.35156 11.6797 8.23438C11.6406 8.23438 11.5625 8.19531 11.5234 8.19531C11.25 8.11719 10.9766 8.03906 10.7031 7.96094C10.1562 7.88281 9.57031 7.92188 9.10156 8.11719C8.67188 8.3125 8.32031 8.78125 8.78906 9.09375C9.17969 9.32812 9.64844 9.44531 10.0781 9.5625C10.1953 9.60156 10.2734 9.64062 10.3516 9.64062C10.9766 9.83594 11.7578 10.0312 12.3438 10.4609C13.0859 10.9688 13.4375 11.8281 13.2812 12.7266C13.125 13.5859 12.5 14.1719 11.7969 14.4453C11.4844 14.6016 11.1328 14.6797 10.7812 14.7188V15.3047C10.7812 15.7734 10.4297 16.125 9.96094 16.125C9.49219 16.125 9.10156 15.7734 9.10156 15.3047V14.6016C8.55469 14.4844 7.96875 14.3281 7.42188 14.1328C6.99219 13.9766 6.75781 13.5078 6.91406 13.0781C7.03125 12.6094 7.53906 12.375 7.96875 12.5312C8.04688 12.5703 8.16406 12.6094 8.24219 12.6094C8.71094 12.7656 9.14062 12.9219 9.60938 13C10.2734 13.1172 10.7812 13.0391 11.1328 12.8828C11.6016 12.7266 11.8359 12.1406 11.3672 11.8281C10.9766 11.5547 10.5078 11.4375 10.0391 11.3203C9.92188 11.2812 9.84375 11.2812 9.76562 11.2422C9.17969 11.0859 8.4375 10.8516 7.89062 10.5C7.10938 10.0312 6.71875 9.21094 6.91406 8.3125C7.07031 7.45312 7.73438 6.90625 8.4375 6.59375C8.63281 6.47656 8.86719 6.4375 9.10156 6.35938V5.73438C9.10156 5.26562 9.49219 4.875 9.96094 4.875C10.4297 4.875 10.7812 5.26562 10.7812 5.73438V6.28125ZM20 10.5C20 16.0469 15.5078 20.5 10 20.5C4.45312 20.5 0 16.0469 0 10.5C0 4.99219 4.45312 0.5 10 0.5C15.5078 0.5 20 4.99219 20 10.5ZM10 2.375C5.50781 2.375 1.875 6.04688 1.875 10.5C1.875 14.9922 5.50781 18.625 10 18.625C14.4531 18.625 18.125 14.9922 18.125 10.5C18.125 6.04688 14.4531 2.375 10 2.375Z" fill="#64b54d"/>
</svg>
