<svg width="15" height="15" viewBox="0 0 15 15" fill="none" xmlns="http://www.w3.org/2000/svg">
<path d="M7.44507 3.8125C7.44507 3.59375 7.63647 3.375 7.88257 3.375C8.10132 3.375 8.32007 3.59375 8.32007 3.8125V7.53125L10.7263 9.14453C10.9451 9.28125 10.9998 9.55469 10.863 9.74609C10.7263 9.96484 10.4529 10.0195 10.2615 9.88281L7.63647 8.13281C7.49976 8.05078 7.41772 7.91406 7.41772 7.75L7.44507 3.8125ZM7.88257 0.75C11.738 0.75 14.8826 3.89453 14.8826 7.75C14.8826 11.6328 11.738 14.75 7.88257 14.75C3.99976 14.75 0.882568 11.6328 0.882568 7.75C0.882568 3.89453 3.99976 0.75 7.88257 0.75ZM1.75757 7.75C1.75757 11.1406 4.49194 13.875 7.88257 13.875C11.2458 13.875 14.0076 11.1406 14.0076 7.75C14.0076 4.38672 11.2458 1.625 7.88257 1.625C4.49194 1.625 1.75757 4.38672 1.75757 7.75Z" fill="#717F8C"/>
</svg>
