<svg width="20" height="15" viewBox="0 0 20 15" fill="none" xmlns="http://www.w3.org/2000/svg">
<path d="M9.46875 4.96875C9.75 4.6875 10.2188 4.6875 10.5 4.96875L13 7.46875C13.3125 7.78125 13.3125 8.25 13 8.53125C12.7188 8.84375 12.25 8.84375 11.9688 8.53125L10.75 7.3125V11.5C10.75 11.9375 10.4062 12.25 10 12.25C9.5625 12.25 9.25 11.9375 9.25 11.5V7.3125L8 8.53125C7.71875 8.84375 7.25 8.84375 6.96875 8.53125C6.65625 8.25 6.65625 7.78125 6.96875 7.46875L9.46875 4.96875ZM4.5 14.5C2 14.5 0 12.5 0 10C0 8.0625 1.25 6.375 3 5.78125V5.75C3 2.875 5.34375 0.5 8.25 0.5C9.8125 0.5 11.25 1.21875 12.2188 2.34375C12.6875 2.125 13.1875 2 13.75 2C15.8125 2 17.5 3.6875 17.5 5.75C17.5 5.96875 17.4688 6.15625 17.4375 6.375C18.9375 7.03125 20 8.53125 20 10.25C20 12.5312 18.2188 14.375 16 14.5H4.5ZM8.25 2C6.15625 2 4.5 3.6875 4.5 5.75V6.84375L3.46875 7.1875C2.3125 7.59375 1.5 8.71875 1.5 10C1.5 11.6562 2.8125 13 4.5 13H15.8125H15.9062C17.3438 12.9375 18.5 11.7188 18.5 10.25C18.5 9.125 17.8125 8.15625 16.8438 7.75L15.7812 7.28125L15.9688 6.125C15.9688 6 16 5.875 16 5.75C16 4.53125 14.9688 3.5 13.75 3.5C13.4062 3.5 13.0938 3.59375 12.8125 3.71875L11.8125 4.15625L11.0625 3.3125C10.375 2.53125 9.375 2 8.21875 2H8.25Z" fill="#6B7280"/>
</svg>
