<svg width="20" height="21" viewBox="0 0 20 21" fill="none" xmlns="http://www.w3.org/2000/svg">
<path d="M20 3.625C20 4.36719 19.4141 4.99219 18.4766 5.5C17.3438 6.16406 15.6641 6.59375 13.7109 6.71094C13.5547 6.67188 13.3984 6.59375 13.2812 6.51562C11.7188 5.89062 9.6875 5.5 7.5 5.5C7.14844 5.5 6.83594 5.53906 6.52344 5.53906L6.48438 5.5C5.54688 4.99219 5 4.36719 5 3.625C5 1.90625 8.32031 0.5 12.5 0.5C16.6406 0.5 20 1.90625 20 3.625ZM6.25 6.82812C6.64062 6.78906 7.07031 6.75 7.5 6.75C9.92188 6.75 12.0703 7.25781 13.4375 8C14.4141 8.50781 15 9.17188 15 9.875C15 10.0312 14.9609 10.1875 14.8828 10.3438C14.7266 10.8516 14.2188 11.3203 13.5156 11.75H13.4766C12.1094 12.5312 9.92188 13 7.5 13C5.15625 13 3.08594 12.5703 1.67969 11.8672C1.60156 11.8281 1.5625 11.7891 1.48438 11.75C0.546875 11.2422 0 10.5781 0 9.875C0 8.54688 2.07031 7.375 5 6.94531C5.39062 6.86719 5.82031 6.82812 6.25 6.82812ZM15.2734 7.80469C16.4062 7.64844 17.4219 7.375 18.2812 7.02344C18.9062 6.75 19.4922 6.39844 20 6.00781V7.375C20 8.15625 19.3359 8.85938 18.2812 9.36719C17.6953 9.67969 16.9922 9.91406 16.2109 10.1094C16.2109 10.0312 16.25 9.95312 16.25 9.875C16.25 9.05469 15.8203 8.35156 15.2734 7.80469ZM15 13.625C15 14.3281 14.4141 14.9922 13.4766 15.5C13.3984 15.5391 13.3594 15.5781 13.2812 15.6172C11.875 16.3203 9.80469 16.75 7.5 16.75C5.03906 16.75 2.85156 16.2812 1.48438 15.5C0.546875 14.9922 0 14.3281 0 13.625V12.2578C0.46875 12.6484 1.05469 13 1.67969 13.2734C3.24219 13.8984 5.27344 14.25 7.5 14.25C9.6875 14.25 11.7188 13.8984 13.2812 13.2734C13.5547 13.1172 13.8672 13 14.1406 12.8438C14.375 12.6875 14.6094 12.5312 14.8047 12.375C14.8828 12.3359 14.9219 12.2969 15 12.2578V13.625ZM16.25 11.3984C16.9531 11.2031 17.6562 11.0078 18.2812 10.7734C18.9062 10.5 19.4922 10.1484 20 9.75781V11.125C20 11.5547 19.8047 11.9453 19.4141 12.3359C18.75 13 17.6562 13.5078 16.2109 13.8594C16.2109 13.7812 16.25 13.7031 16.25 13.625V11.3984ZM7.5 18C9.6875 18 11.7188 17.6484 13.2812 17.0234C13.9062 16.75 14.4922 16.3984 15 16.0078V17.375C15 19.1328 11.6406 20.5 7.5 20.5C3.32031 20.5 0 19.1328 0 17.375V16.0078C0.46875 16.3984 1.05469 16.75 1.67969 17.0234C3.24219 17.6484 5.27344 18 7.5 18Z" fill="#F4C545"/>
</svg>
