<svg width="20" height="20" viewBox="0 0 20 20" fill="none" xmlns="http://www.w3.org/2000/svg">
<path d="M7.77778 11.1111H1.11111C0.816426 11.1111 0.533811 11.2282 0.325437 11.4365C0.117063 11.6449 0 11.9275 0 12.2222V18.8889C0 19.1836 0.117063 19.4662 0.325437 19.6746C0.533811 19.8829 0.816426 20 1.11111 20H7.77778C8.07246 20 8.35508 19.8829 8.56345 19.6746C8.77183 19.4662 8.88889 19.1836 8.88889 18.8889V12.2222C8.88889 11.9275 8.77183 11.6449 8.56345 11.4365C8.35508 11.2282 8.07246 11.1111 7.77778 11.1111ZM6.66667 17.7778H2.22222V13.3333H6.66667V17.7778ZM18.8889 0H12.2222C11.9275 0 11.6449 0.117063 11.4365 0.325437C11.2282 0.533811 11.1111 0.816426 11.1111 1.11111V7.77778C11.1111 8.07246 11.2282 8.35508 11.4365 8.56345C11.6449 8.77183 11.9275 8.88889 12.2222 8.88889H18.8889C19.1836 8.88889 19.4662 8.77183 19.6746 8.56345C19.8829 8.35508 20 8.07246 20 7.77778V1.11111C20 0.816426 19.8829 0.533811 19.6746 0.325437C19.4662 0.117063 19.1836 0 18.8889 0ZM17.7778 6.66667H13.3333V2.22222H17.7778V6.66667ZM18.8889 14.4444H16.6667V12.2222C16.6667 11.9275 16.5496 11.6449 16.3412 11.4365C16.1329 11.2282 15.8502 11.1111 15.5556 11.1111C15.2609 11.1111 14.9783 11.2282 14.7699 11.4365C14.5615 11.6449 14.4444 11.9275 14.4444 12.2222V14.4444H12.2222C11.9275 14.4444 11.6449 14.5615 11.4365 14.7699C11.2282 14.9783 11.1111 15.2609 11.1111 15.5556C11.1111 15.8502 11.2282 16.1329 11.4365 16.3412C11.6449 16.5496 11.9275 16.6667 12.2222 16.6667H14.4444V18.8889C14.4444 19.1836 14.5615 19.4662 14.7699 19.6746C14.9783 19.8829 15.2609 20 15.5556 20C15.8502 20 16.1329 19.8829 16.3412 19.6746C16.5496 19.4662 16.6667 19.1836 16.6667 18.8889V16.6667H18.8889C19.1836 16.6667 19.4662 16.5496 19.6746 16.3412C19.8829 16.1329 20 15.8502 20 15.5556C20 15.2609 19.8829 14.9783 19.6746 14.7699C19.4662 14.5615 19.1836 14.4444 18.8889 14.4444ZM7.77778 0H1.11111C0.816426 0 0.533811 0.117063 0.325437 0.325437C0.117063 0.533811 0 0.816426 0 1.11111V7.77778C0 8.07246 0.117063 8.35508 0.325437 8.56345C0.533811 8.77183 0.816426 8.88889 1.11111 8.88889H7.77778C8.07246 8.88889 8.35508 8.77183 8.56345 8.56345C8.77183 8.35508 8.88889 8.07246 8.88889 7.77778V1.11111C8.88889 0.816426 8.77183 0.533811 8.56345 0.325437C8.35508 0.117063 8.07246 0 7.77778 0ZM6.66667 6.66667H2.22222V2.22222H6.66667V6.66667Z" fill="#61B846"/>
</svg>
