<svg width="16" height="16" viewBox="0 0 16 16" fill="none" xmlns="http://www.w3.org/2000/svg">
	<path className="svg-icon" fill-rule="evenodd" clip-rule="evenodd" d="M14.4995 1.49997V6.55285H9.49931V1.49997H14.4995ZM14.852 -3.05176e-05C15.4858 -3.05176e-05 15.9995 0.513722 15.9995 1.14747V6.90535C15.9995 7.5391 15.4858 8.05285 14.852 8.05285H9.14681C8.51306 8.05285 7.99931 7.5391 7.99931 6.90535V1.14747C7.99931 0.513723 8.51306 -3.05176e-05 9.14681 -3.05176e-05H14.852Z" fill="white"/>
	<path className="svg-icon" fill-rule="evenodd" clip-rule="evenodd" d="M4.68605 3.80087V6.82025H1.49984V3.80087H4.68605ZM12.521 11.4806V14.5H9.33478V11.4806H12.521ZM4.68608 11.4806V14.5H1.49986V11.4806H4.68608ZM5.03855 2.30087C5.6723 2.30087 6.18605 2.81463 6.18605 3.44837V7.17275C6.18605 7.8065 5.6723 8.32025 5.03855 8.32025H1.14734C0.513593 8.32025 -0.000160217 7.8065 -0.000160217 7.17275V3.44837C-0.000160217 2.81463 0.513592 2.30087 1.14734 2.30087H5.03855ZM12.8735 9.98063C13.5072 9.98063 14.021 10.4944 14.021 11.1281V14.8525C14.021 15.4863 13.5072 16 12.8735 16H8.98228C8.34854 16 7.83478 15.4863 7.83478 14.8525V11.1281C7.83478 10.4944 8.34854 9.98063 8.98228 9.98063H12.8735ZM6.18608 11.1281C6.18608 10.4944 5.67232 9.98063 5.03858 9.98063H1.14736C0.513615 9.98063 -0.000137329 10.4944 -0.000137329 11.1281V14.8525C-0.000137329 15.4863 0.513616 16 1.14736 16H5.03858C5.67232 16 6.18608 15.4863 6.18608 14.8525V11.1281Z" fill="white"/>
</svg>
