<svg width="40" height="40" viewBox="0 0 40 40" fill="none" xmlns="http://www.w3.org/2000/svg">
<path d="M20 0C8.90625 0 0 8.98438 0 20C0 31.0938 8.90625 40 20 40C31.0156 40 40 31.0938 40 20C40 8.98438 31.0156 0 20 0ZM20 36.25C11.0156 36.25 3.75 28.9844 3.75 20C3.75 11.0938 11.0156 3.75 20 3.75C28.9062 3.75 36.25 11.0938 36.25 20C36.25 28.9844 28.9062 36.25 20 36.25ZM20 23.75C21.0156 23.75 21.875 22.9688 21.875 21.875V11.875C21.875 10.8594 21.0156 10 20 10C18.9062 10 18.125 10.8594 18.125 11.875V21.875C18.125 22.9688 18.9062 23.75 20 23.75ZM20 26.4062C18.5938 26.4062 17.5 27.5 17.5 28.8281C17.5 30.1562 18.5938 31.25 20 31.25C21.3281 31.25 22.4219 30.1562 22.4219 28.8281C22.4219 27.5 21.3281 26.4062 20 26.4062Z" fill="#FE2762"/>
</svg>
