<svg width="15" height="15" viewBox="0 0 15 15" fill="none" xmlns="http://www.w3.org/2000/svg">
<path d="M13.8438 0.750122H10.125C9.76953 0.750122 9.44141 0.968872 9.30469 1.32434C9.16797 1.65247 9.25 2.03528 9.49609 2.28137L10.6172 3.40247L5.33984 8.67981C4.98438 9.00793 4.98438 9.58215 5.33984 9.91028C5.50391 10.0743 5.72266 10.1564 5.96875 10.1564C6.1875 10.1564 6.40625 10.0743 6.57031 9.91028L11.8477 4.63293L12.9688 5.75403C13.1328 5.91809 13.3516 6.00012 13.5977 6.00012C13.707 6.00012 13.8164 6.00012 13.9258 5.94543C14.2812 5.80872 14.5 5.48059 14.5 5.12512V1.40637C14.5 1.0509 14.1992 0.750122 13.8438 0.750122ZM11.2188 9.50012C10.8359 9.50012 10.5625 9.8009 10.5625 10.1564V13.2189C10.5625 13.3556 10.4531 13.4376 10.3438 13.4376H2.03125C1.89453 13.4376 1.8125 13.3556 1.8125 13.2189V4.90637C1.8125 4.797 1.89453 4.68762 2.03125 4.68762H5.09375C5.44922 4.68762 5.75 4.41418 5.75 4.03137C5.75 3.6759 5.44922 3.37512 5.09375 3.37512H2.03125C1.18359 3.37512 0.5 4.08606 0.5 4.90637V13.2189C0.5 14.0665 1.18359 14.7501 2.03125 14.7501H10.3438C11.1641 14.7501 11.875 14.0665 11.875 13.2189V10.1564C11.875 9.8009 11.5742 9.50012 11.2188 9.50012Z" fill="#191919"/>
</svg>
