<svg width="28" height="29" viewBox="0 0 28 29" fill="none" xmlns="http://www.w3.org/2000/svg">
<path d="M11.3023 8.58138L4.18604 7.32556V16.6048C4.18604 17.0285 4.52957 17.3721 4.95334 17.3721H17.2327C17.6565 17.3721 18 17.0285 18 16.6048V13.186L11.3023 8.58138Z" fill="#185C37"/>
<path d="M11.3023 0.627899H4.95334C4.52957 0.627899 4.18604 0.97143 4.18604 1.3952V4.81395L11.3023 8.99999L15.0698 10.2558L18 8.99999V4.81395L11.3023 0.627899Z" fill="#21A366"/>
<path d="M4.18604 4.81395H11.3023V9H4.18604V4.81395Z" fill="#107C41"/>
<path opacity="0.1" d="M9.2792 3.97673H4.18604V14.4418H9.2792C9.70239 14.4405 10.0451 14.0977 10.0465 13.6745V4.74403C10.0451 4.32084 9.70239 3.97811 9.2792 3.97673Z" fill="black"/>
<path opacity="0.2" d="M8.86059 4.39532H4.18604V14.8604H8.86059C9.28379 14.8591 9.62652 14.5163 9.6279 14.0931V5.16263C9.62652 4.73943 9.28379 4.3967 8.86059 4.39532Z" fill="black"/>
<path opacity="0.2" d="M8.86059 4.39532H4.18604V14.0232H8.86059C9.28379 14.0219 9.62652 13.6791 9.6279 13.2559V5.16263C9.62652 4.73943 9.28379 4.3967 8.86059 4.39532Z" fill="black"/>
<path opacity="0.2" d="M8.44199 4.39532H4.18604V14.0232H8.44199C8.86519 14.0219 9.20792 13.6791 9.20929 13.2559V5.16263C9.20792 4.73943 8.86519 4.3967 8.44199 4.39532Z" fill="black"/>
<path d="M0.7673 4.39532H8.44199C8.86576 4.39532 9.2093 4.73886 9.2093 5.16263V12.8373C9.2093 13.2611 8.86576 13.6046 8.44199 13.6046H0.7673C0.343531 13.6046 0 13.2611 0 12.8373V5.16263C0 4.73886 0.343531 4.39532 0.7673 4.39532Z" fill="url(#paint0_linear_846_1907)"/>
<path d="M2.37622 11.494L3.99036 8.99288L2.51143 6.50552H3.7011L4.50817 8.09622C4.58269 8.24734 4.63375 8.35952 4.66139 8.43361H4.67185C4.72487 8.31305 4.78069 8.19599 4.83929 8.0824L5.70203 6.50636H6.79417L5.27756 8.97906L6.83269 11.494H5.67064L4.73841 9.74804C4.6945 9.67375 4.65723 9.59572 4.62706 9.51488H4.61325C4.58594 9.59408 4.54971 9.66992 4.50525 9.74093L3.54539 11.494H2.37622Z" fill="white"/>
<path d="M17.2326 0.627899H11.3022V4.81395H17.9999V1.3952C17.9999 0.97143 17.6564 0.627899 17.2326 0.627899Z" fill="#33C481"/>
<path d="M11.3022 8.99998H17.9999V13.186H11.3022V8.99998Z" fill="#107C41"/>
<g filter="url(#filter0_d_846_1907)">
<circle cx="17.5" cy="16.1279" r="5.5" fill="white"/>
<circle cx="17.5" cy="16.1279" r="6" stroke="#0E7038"/>
</g>
<path d="M20.4438 16.4873L17.9438 18.9873C17.8501 19.081 17.7251 19.1279 17.6001 19.1279C17.4595 19.1279 17.3345 19.081 17.2407 18.9873C17.0376 18.7998 17.0376 18.4716 17.2407 18.2841L18.8813 16.6279H14.1001C13.8188 16.6279 13.6001 16.4091 13.6001 16.1279C13.6001 15.8623 13.8188 15.6279 14.1001 15.6279H18.8813L17.2407 13.9873C17.0376 13.7998 17.0376 13.4716 17.2407 13.2841C17.4282 13.081 17.7563 13.081 17.9438 13.2841L20.4438 15.7841C20.647 15.9716 20.647 16.2998 20.4438 16.4873Z" fill="#0E7038"/>
<defs>
<filter id="filter0_d_846_1907" x="7" y="7.6279" width="21" height="21" filterUnits="userSpaceOnUse" color-interpolation-filters="sRGB">
<feFlood flood-opacity="0" result="BackgroundImageFix"/>
<feColorMatrix in="SourceAlpha" type="matrix" values="0 0 0 0 0 0 0 0 0 0 0 0 0 0 0 0 0 0 127 0" result="hardAlpha"/>
<feOffset dy="2"/>
<feGaussianBlur stdDeviation="2"/>
<feColorMatrix type="matrix" values="0 0 0 0 0 0 0 0 0 0 0 0 0 0 0 0 0 0 0.15 0"/>
<feBlend mode="normal" in2="BackgroundImageFix" result="effect1_dropShadow_846_1907"/>
<feBlend mode="normal" in="SourceGraphic" in2="effect1_dropShadow_846_1907" result="shape"/>
</filter>
<linearGradient id="paint0_linear_846_1907" x1="1.59984" y1="3.79577" x2="7.60946" y2="14.2042" gradientUnits="userSpaceOnUse">
<stop stop-color="#18884F"/>
<stop offset="0.5" stop-color="#117E43"/>
<stop offset="1" stop-color="#0B6631"/>
</linearGradient>
</defs>
</svg>
