<svg width="16" height="14" viewBox="0 0 16 14" fill="none" xmlns="http://www.w3.org/2000/svg">
<path d="M4.38184 7C4.38184 5.08594 5.94043 3.5 7.88184 3.5C9.7959 3.5 11.3818 5.08594 11.3818 7C11.3818 8.94141 9.7959 10.5 7.88184 10.5C5.94043 10.5 4.38184 8.94141 4.38184 7ZM7.88184 9.1875C9.08496 9.1875 10.0693 8.23047 10.0693 7C10.0693 5.79688 9.08496 4.8125 7.88184 4.8125C7.85449 4.8125 7.82715 4.8125 7.7998 4.8125C7.85449 4.97656 7.88184 5.11328 7.88184 5.25C7.88184 6.23438 7.08887 7 6.13184 7C5.96777 7 5.83105 7 5.69434 6.94531C5.69434 6.97266 5.69434 7 5.69434 7C5.69434 8.23047 6.65137 9.1875 7.88184 9.1875ZM2.60449 3.08984C3.88965 1.88672 5.66699 0.875 7.88184 0.875C10.0693 0.875 11.8467 1.88672 13.1318 3.08984C14.417 4.26562 15.2646 5.6875 15.6748 6.67188C15.7568 6.89062 15.7568 7.13672 15.6748 7.35547C15.2646 8.3125 14.417 9.73438 13.1318 10.9375C11.8467 12.1406 10.0693 13.125 7.88184 13.125C5.66699 13.125 3.88965 12.1406 2.60449 10.9375C1.31934 9.73438 0.47168 8.3125 0.0615234 7.35547C-0.0205078 7.13672 -0.0205078 6.89062 0.0615234 6.67188C0.47168 5.6875 1.31934 4.26562 2.60449 3.08984ZM7.88184 2.1875C6.07715 2.1875 4.62793 3.00781 3.50684 4.04688C2.44043 5.03125 1.72949 6.17969 1.34668 7C1.72949 7.82031 2.44043 8.99609 3.50684 9.98047C4.62793 11.0195 6.07715 11.8125 7.88184 11.8125C9.65918 11.8125 11.1084 11.0195 12.2295 9.98047C13.2959 8.99609 14.0068 7.82031 14.3896 7C14.0068 6.17969 13.2959 5.03125 12.2295 4.04688C11.1084 3.00781 9.65918 2.1875 7.88184 2.1875Z" fill="#64b54d"/>
</svg>
