<svg width="17" height="13" viewBox="0 0 17 13" fill="none" xmlns="http://www.w3.org/2000/svg">
<path d="M4.875 6.75C4.875 4.83594 6.43359 3.25 8.375 3.25C10.2891 3.25 11.875 4.83594 11.875 6.75C11.875 8.69141 10.2891 10.25 8.375 10.25C6.43359 10.25 4.875 8.69141 4.875 6.75ZM8.375 8.9375C9.57812 8.9375 10.5625 7.98047 10.5625 6.75C10.5625 5.54688 9.57812 4.5625 8.375 4.5625C8.34766 4.5625 8.32031 4.5625 8.29297 4.5625C8.34766 4.72656 8.375 4.86328 8.375 5C8.375 5.98438 7.58203 6.75 6.625 6.75C6.46094 6.75 6.32422 6.75 6.1875 6.69531C6.1875 6.72266 6.1875 6.75 6.1875 6.75C6.1875 7.98047 7.14453 8.9375 8.375 8.9375ZM3.09766 2.83984C4.38281 1.63672 6.16016 0.625 8.375 0.625C10.5625 0.625 12.3398 1.63672 13.625 2.83984C14.9102 4.01562 15.7578 5.4375 16.168 6.42188C16.25 6.64062 16.25 6.88672 16.168 7.10547C15.7578 8.0625 14.9102 9.48438 13.625 10.6875C12.3398 11.8906 10.5625 12.875 8.375 12.875C6.16016 12.875 4.38281 11.8906 3.09766 10.6875C1.8125 9.48438 0.964844 8.0625 0.554688 7.10547C0.472656 6.88672 0.472656 6.64062 0.554688 6.42188C0.964844 5.4375 1.8125 4.01562 3.09766 2.83984ZM8.375 1.9375C6.57031 1.9375 5.12109 2.75781 4 3.79688C2.93359 4.78125 2.22266 5.92969 1.83984 6.75C2.22266 7.57031 2.93359 8.74609 4 9.73047C5.12109 10.7695 6.57031 11.5625 8.375 11.5625C10.1523 11.5625 11.6016 10.7695 12.7227 9.73047C13.7891 8.74609 14.5 7.57031 14.8828 6.75C14.5 5.92969 13.7891 4.78125 12.7227 3.79688C11.6016 2.75781 10.1523 1.9375 8.375 1.9375Z" fill="#5D6E82"/>
</svg>
