<svg width="16" height="21" viewBox="0 0 16 21" fill="none" xmlns="http://www.w3.org/2000/svg">
<path d="M15.0078 5.42188L10.8281 1.24219C10.3594 0.773438 9.73438 0.5 9.07031 0.5H3.25C1.84375 0.5 0.75 1.63281 0.75 3V18C0.75 19.4062 1.84375 20.5 3.25 20.5H13.25C14.6172 20.5 15.75 19.4062 15.75 18V7.17969C15.75 6.51562 15.4766 5.89062 15.0078 5.42188ZM9.5 1.86719C9.65625 1.90625 9.8125 1.98438 9.96875 2.14062L14.1094 6.28125C14.2656 6.4375 14.3438 6.59375 14.3828 6.75H10.125C9.77344 6.75 9.5 6.47656 9.5 6.125V1.86719ZM14.5 18C14.5 18.7031 13.9141 19.25 13.25 19.25H3.25C2.54688 19.25 2 18.7031 2 18V3C2 2.33594 2.54688 1.75 3.25 1.75H8.25V6.125C8.25 7.17969 9.07031 8 10.125 8H14.5V18ZM3.875 4.25H6.375C6.6875 4.25 7 3.97656 7 3.625C7 3.3125 6.6875 3 6.375 3H3.875C3.52344 3 3.25 3.3125 3.25 3.625C3.25 3.97656 3.52344 4.25 3.875 4.25ZM7 6.125C7 5.8125 6.6875 5.5 6.375 5.5H3.875C3.52344 5.5 3.25 5.8125 3.25 6.125C3.25 6.47656 3.52344 6.75 3.875 6.75H6.375C6.6875 6.75 7 6.47656 7 6.125ZM8.64062 11.7891C8.875 11.8281 9.1875 11.9062 9.46094 12.0234C9.77344 12.1016 10.125 11.9062 10.2422 11.5938C10.3203 11.2812 10.1641 10.9297 9.8125 10.8125C9.42188 10.6953 9.10938 10.6172 8.83594 10.5781C8.83594 10.5391 8.875 10.5391 8.875 10.5V9.875C8.875 9.5625 8.5625 9.25 8.25 9.25C7.89844 9.25 7.625 9.5625 7.625 9.875V10.5C7.625 10.5391 7.625 10.5391 7.625 10.5391C6.60938 10.6953 5.90625 11.2031 5.75 12.0234C5.47656 13.5859 7.03906 13.9766 7.82031 14.1719L8.09375 14.25C9.34375 14.5625 9.53906 14.7188 9.46094 15.0312C9.38281 15.4219 8.67969 15.6172 7.82031 15.5C7.50781 15.4219 7.07812 15.3047 6.72656 15.1875L6.53125 15.1484C6.21875 15.0312 5.86719 15.2266 5.75 15.5391C5.67188 15.8516 5.82812 16.2031 6.17969 16.3203L6.375 16.3984C6.76562 16.5156 7.19531 16.6328 7.625 16.7109V16.75V17.375C7.625 17.7266 7.89844 18 8.25 18C8.5625 18 8.875 17.7266 8.875 17.375V16.75C8.875 16.75 8.83594 16.75 8.83594 16.7109C9.85156 16.5938 10.5547 16.0859 10.7109 15.2656C10.9844 13.7031 9.42188 13.3125 8.36719 13.0391L8.13281 12.9609C6.92188 12.6484 6.96094 12.4531 7 12.2578C7.07812 11.8672 7.78125 11.6719 8.64062 11.7891Z" fill="white"/>
</svg>
