<svg width="24" height="17" viewBox="0 0 24 17" fill="none" xmlns="http://www.w3.org/2000/svg">
<path d="M22.7986 9.46875L20.2986 6.96875C19.9861 6.6875 19.5173 6.6875 19.2361 6.96875C18.9236 7.28125 18.9236 7.75 19.2361 8.03125L20.4861 9.25H11.7986C11.3611 9.25 11.0486 9.59375 11.0486 10C11.0486 10.4375 11.3611 10.75 11.7986 10.75H20.4861L19.2673 12C19.1111 12.125 19.0486 12.3125 19.0486 12.5C19.0486 12.7188 19.1111 12.9062 19.2673 13.0312C19.5486 13.3438 20.0173 13.3438 20.2986 13.0312L22.7986 10.5312C23.1111 10.25 23.1111 9.78125 22.7986 9.46875ZM16.2986 12C15.8611 12 15.5486 12.3438 15.5486 12.75V14C15.5486 14.2812 15.2986 14.5 15.0486 14.5H7.04858C6.76733 14.5 6.54858 14.2812 6.54858 14V2.03125C6.54858 1.75 6.76733 1.53125 7.04858 1.53125H12.0486V4C12.0486 4.5625 12.4861 5 13.0486 5H15.5173V7.25C15.5173 7.6875 15.8298 8 16.2361 8C16.6111 8 17.0486 7.6875 17.0486 7.25V4.34375C17.0486 3.8125 16.8298 3.3125 16.4548 2.9375L14.1111 0.59375C13.7361 0.21875 13.2361 0 12.7048 0H7.01733C5.92358 0 5.01733 0.90625 5.04858 2V14C5.04858 15.125 5.92358 16 7.04858 16H15.0486C16.1423 16 17.0486 15.125 17.0486 14V12.75C17.0486 12.3438 16.7048 12 16.2986 12Z" fill="#6B7280"/>
<rect x="0.95166" y="6.5" width="15.4286" height="9.42857" rx="1.42857" fill="white"/>
<path d="M2.00879 12.7953C2.00879 12.6117 2.05859 12.4828 2.1582 12.4086C2.25977 12.3344 2.38184 12.2973 2.52441 12.2973C2.66309 12.2973 2.78223 12.3344 2.88184 12.4086C2.9834 12.4828 3.03418 12.6117 3.03418 12.7953C3.03418 12.9711 2.9834 13.0981 2.88184 13.1762C2.78223 13.2543 2.66309 13.2934 2.52441 13.2934C2.38184 13.2934 2.25977 13.2543 2.1582 13.1762C2.05859 13.0981 2.00879 12.9711 2.00879 12.7953ZM4.5166 11.5414L3.46191 9.93889H4.47559L5.11133 10.9819L5.75293 9.93889H6.7666L5.7002 11.5414L6.81641 13.2143H5.7998L5.11133 12.0922L4.41992 13.2143H3.40625L4.5166 11.5414ZM8.20801 13.2143H7.31445V8.65569H8.20801V13.2143ZM11.4336 12.2416C11.4336 12.4643 11.3809 12.6528 11.2754 12.8071C11.1719 12.9594 11.0166 13.0756 10.8096 13.1557C10.6025 13.2338 10.3447 13.2729 10.0361 13.2729C9.80762 13.2729 9.61133 13.2582 9.44727 13.2289C9.28516 13.1996 9.12109 13.1508 8.95508 13.0824V12.3442C9.13281 12.4242 9.32324 12.4906 9.52637 12.5434C9.73145 12.5942 9.91113 12.6196 10.0654 12.6196C10.2393 12.6196 10.3633 12.5942 10.4375 12.5434C10.5137 12.4906 10.5518 12.4223 10.5518 12.3383C10.5518 12.2836 10.5361 12.2348 10.5049 12.1918C10.4756 12.1469 10.4111 12.0971 10.3115 12.0424C10.2119 11.9858 10.0557 11.9125 9.84277 11.8227C9.6377 11.7367 9.46875 11.6498 9.33594 11.5619C9.20508 11.474 9.10742 11.3705 9.04297 11.2514C8.98047 11.1303 8.94922 10.977 8.94922 10.7914C8.94922 10.4887 9.06641 10.2612 9.30078 10.1088C9.53711 9.95451 9.85254 9.87737 10.2471 9.87737C10.4502 9.87737 10.6436 9.89787 10.8271 9.93889C11.0127 9.9799 11.2031 10.0453 11.3984 10.1352L11.1289 10.7797C10.9668 10.7094 10.8135 10.6518 10.6689 10.6069C10.5264 10.5619 10.3809 10.5395 10.2324 10.5395C10.1016 10.5395 10.0029 10.5571 9.93652 10.5922C9.87012 10.6274 9.83691 10.6811 9.83691 10.7533C9.83691 10.8061 9.85352 10.853 9.88672 10.894C9.92188 10.935 9.98828 10.9809 10.0859 11.0317C10.1855 11.0805 10.3311 11.144 10.5225 11.2221C10.708 11.2983 10.8691 11.3783 11.0059 11.4623C11.1426 11.5444 11.248 11.6469 11.3223 11.7699C11.3965 11.891 11.4336 12.0483 11.4336 12.2416ZM12.8018 11.5414L11.7471 9.93889H12.7607L13.3965 10.9819L14.0381 9.93889H15.0518L13.9854 11.5414L15.1016 13.2143H14.085L13.3965 12.0922L12.7051 13.2143H11.6914L12.8018 11.5414Z" fill="#6B7280"/>
<rect x="0.95166" y="6.5" width="15.4286" height="9.42857" rx="1.42857" stroke="#6B7280" stroke-width="1.25"/>
</svg>
