<svg width="14" height="13" viewBox="0 0 14 13" fill="none" xmlns="http://www.w3.org/2000/svg">
<path d="M0 1.77356C0 1.14465 0.492188 0.625122 1.12109 0.625122H12.8516C13.4805 0.625122 14 1.14465 14 1.77356C14 2.047 13.8906 2.29309 13.7266 2.4845L9.1875 8.08997V12.0001C9.1875 12.4923 8.77734 12.8751 8.28516 12.8751C8.09375 12.8751 7.90234 12.8204 7.73828 12.6837L5.22266 10.6876C4.94922 10.4689 4.8125 10.1681 4.8125 9.83997V8.08997L0.246094 2.4845C0.0820312 2.29309 0 2.047 0 1.77356ZM1.47656 1.93762L5.96094 7.43372C6.07031 7.57043 6.125 7.70715 6.125 7.84387V9.73059L7.875 11.1251V7.84387C7.875 7.70715 7.90234 7.57043 8.01172 7.43372L12.4961 1.93762H1.47656Z" fill="#191919"/>
</svg>
