<svg width="128" height="24" viewBox="0 0 128 24" fill="none" xmlns="http://www.w3.org/2000/svg">
<rect x="0.5" y="0.5" width="127" height="23" rx="11.5" fill="#EBF2FA"/>
<path d="M18.7275 7.04688V17H17.0117V7.04688H18.7275ZM22.7881 11.4014V12.7617H18.29V11.4014H22.7881ZM23.3555 7.04688V8.41406H18.29V7.04688H23.3555ZM27.6689 17.1367C27.1221 17.1367 26.6276 17.0479 26.1855 16.8701C25.748 16.6878 25.3743 16.4349 25.0645 16.1113C24.7591 15.7878 24.5244 15.4072 24.3604 14.9697C24.1963 14.5322 24.1143 14.0605 24.1143 13.5547V13.2812C24.1143 12.7025 24.1986 12.1784 24.3672 11.709C24.5358 11.2396 24.7705 10.8385 25.0713 10.5059C25.3721 10.1686 25.7275 9.91113 26.1377 9.7334C26.5479 9.55566 26.9922 9.4668 27.4707 9.4668C27.9993 9.4668 28.4619 9.55566 28.8584 9.7334C29.2549 9.91113 29.583 10.1618 29.8428 10.4854C30.1071 10.8044 30.3031 11.1849 30.4307 11.627C30.5628 12.069 30.6289 12.5566 30.6289 13.0898V13.7939H24.9141V12.6113H29.002V12.4814C28.9928 12.1852 28.9336 11.9072 28.8242 11.6475C28.7194 11.3877 28.5576 11.1781 28.3389 11.0186C28.1201 10.859 27.8285 10.7793 27.4639 10.7793C27.1904 10.7793 26.9466 10.8385 26.7324 10.957C26.5228 11.071 26.3473 11.2373 26.2061 11.4561C26.0648 11.6748 25.9554 11.9391 25.8779 12.249C25.805 12.5544 25.7686 12.8984 25.7686 13.2812V13.5547C25.7686 13.8783 25.8118 14.179 25.8984 14.457C25.9896 14.7305 26.1217 14.9697 26.2949 15.1748C26.4681 15.3799 26.6777 15.5417 26.9238 15.6602C27.1699 15.7741 27.4502 15.8311 27.7646 15.8311C28.1611 15.8311 28.5143 15.7513 28.8242 15.5918C29.1341 15.4323 29.403 15.2067 29.6309 14.915L30.499 15.7559C30.3395 15.9883 30.1322 16.2116 29.877 16.4258C29.6217 16.6354 29.3096 16.8063 28.9404 16.9385C28.5758 17.0706 28.152 17.1367 27.6689 17.1367ZM35.1748 17.1367C34.6279 17.1367 34.1335 17.0479 33.6914 16.8701C33.2539 16.6878 32.8802 16.4349 32.5703 16.1113C32.265 15.7878 32.0303 15.4072 31.8662 14.9697C31.7021 14.5322 31.6201 14.0605 31.6201 13.5547V13.2812C31.6201 12.7025 31.7044 12.1784 31.873 11.709C32.0417 11.2396 32.2764 10.8385 32.5771 10.5059C32.8779 10.1686 33.2334 9.91113 33.6436 9.7334C34.0537 9.55566 34.498 9.4668 34.9766 9.4668C35.5052 9.4668 35.9678 9.55566 36.3643 9.7334C36.7607 9.91113 37.0889 10.1618 37.3486 10.4854C37.613 10.8044 37.8089 11.1849 37.9365 11.627C38.0687 12.069 38.1348 12.5566 38.1348 13.0898V13.7939H32.4199V12.6113H36.5078V12.4814C36.4987 12.1852 36.4395 11.9072 36.3301 11.6475C36.2253 11.3877 36.0635 11.1781 35.8447 11.0186C35.626 10.859 35.3343 10.7793 34.9697 10.7793C34.6963 10.7793 34.4525 10.8385 34.2383 10.957C34.0286 11.071 33.8532 11.2373 33.7119 11.4561C33.5706 11.6748 33.4613 11.9391 33.3838 12.249C33.3109 12.5544 33.2744 12.8984 33.2744 13.2812V13.5547C33.2744 13.8783 33.3177 14.179 33.4043 14.457C33.4954 14.7305 33.6276 14.9697 33.8008 15.1748C33.974 15.3799 34.1836 15.5417 34.4297 15.6602C34.6758 15.7741 34.9561 15.8311 35.2705 15.8311C35.667 15.8311 36.0202 15.7513 36.3301 15.5918C36.64 15.4323 36.9089 15.2067 37.1367 14.915L38.0049 15.7559C37.8454 15.9883 37.638 16.2116 37.3828 16.4258C37.1276 16.6354 36.8154 16.8063 36.4463 16.9385C36.0817 17.0706 35.6579 17.1367 35.1748 17.1367ZM46.8506 13.2881H44.2598V11.9277H46.8506C47.3018 11.9277 47.6663 11.8548 47.9443 11.709C48.2223 11.5632 48.4251 11.3626 48.5527 11.1074C48.6849 10.8477 48.751 10.5514 48.751 10.2188C48.751 9.9043 48.6849 9.61035 48.5527 9.33691C48.4251 9.05892 48.2223 8.83561 47.9443 8.66699C47.6663 8.49837 47.3018 8.41406 46.8506 8.41406H44.7861V17H43.0703V7.04688H46.8506C47.6208 7.04688 48.2747 7.18359 48.8125 7.45703C49.3548 7.72591 49.7673 8.09961 50.0498 8.57812C50.3324 9.05208 50.4736 9.5944 50.4736 10.2051C50.4736 10.8477 50.3324 11.3991 50.0498 11.8594C49.7673 12.3197 49.3548 12.6729 48.8125 12.9189C48.2747 13.165 47.6208 13.2881 46.8506 13.2881ZM55.9355 15.5166V11.9893C55.9355 11.7249 55.8877 11.4971 55.792 11.3057C55.6963 11.1143 55.5505 10.9661 55.3545 10.8613C55.1631 10.7565 54.9215 10.7041 54.6299 10.7041C54.361 10.7041 54.1286 10.7497 53.9326 10.8408C53.7367 10.932 53.584 11.055 53.4746 11.21C53.3652 11.3649 53.3105 11.5404 53.3105 11.7363H51.6699C51.6699 11.4447 51.7406 11.1621 51.8818 10.8887C52.0231 10.6152 52.2282 10.3714 52.4971 10.1572C52.766 9.94303 53.0872 9.77441 53.4609 9.65137C53.8346 9.52832 54.2539 9.4668 54.7188 9.4668C55.2747 9.4668 55.7669 9.56022 56.1953 9.74707C56.6283 9.93392 56.9678 10.2165 57.2139 10.5947C57.4645 10.9684 57.5898 11.4378 57.5898 12.0029V15.291C57.5898 15.6283 57.6126 15.9313 57.6582 16.2002C57.7083 16.4645 57.779 16.6947 57.8701 16.8906V17H56.1816C56.1042 16.8223 56.0426 16.5967 55.9971 16.3232C55.9561 16.0452 55.9355 15.7764 55.9355 15.5166ZM56.1748 12.502L56.1885 13.5205H55.0059C54.7005 13.5205 54.4316 13.5501 54.1992 13.6094C53.9668 13.6641 53.7731 13.7461 53.6182 13.8555C53.4632 13.9648 53.347 14.097 53.2695 14.252C53.1921 14.4069 53.1533 14.5824 53.1533 14.7783C53.1533 14.9743 53.1989 15.1543 53.29 15.3184C53.3812 15.4779 53.5133 15.6032 53.6865 15.6943C53.8643 15.7855 54.0785 15.8311 54.3291 15.8311C54.6663 15.8311 54.9603 15.7627 55.2109 15.626C55.4661 15.4847 55.6667 15.3138 55.8125 15.1133C55.9583 14.9082 56.0358 14.7145 56.0449 14.5322L56.5781 15.2637C56.5234 15.4505 56.43 15.651 56.2979 15.8652C56.1657 16.0794 55.9925 16.2845 55.7783 16.4805C55.5687 16.6719 55.3158 16.8291 55.0195 16.9521C54.7279 17.0752 54.3906 17.1367 54.0078 17.1367C53.5247 17.1367 53.0941 17.041 52.7158 16.8496C52.3376 16.6536 52.0413 16.3916 51.8271 16.0635C51.613 15.7308 51.5059 15.3548 51.5059 14.9355C51.5059 14.5436 51.5788 14.1973 51.7246 13.8965C51.875 13.5911 52.0938 13.3359 52.3809 13.1309C52.6725 12.9258 53.028 12.7708 53.4473 12.666C53.8665 12.5566 54.3451 12.502 54.8828 12.502H56.1748ZM61.3496 16.1934L63.3594 9.60352H65.123L62.1562 18.1279C62.0879 18.3102 61.999 18.5085 61.8896 18.7227C61.7803 18.9368 61.6367 19.1396 61.459 19.3311C61.2858 19.527 61.0693 19.6842 60.8096 19.8027C60.5498 19.9258 60.2354 19.9873 59.8662 19.9873C59.7204 19.9873 59.5791 19.9736 59.4424 19.9463C59.3102 19.9235 59.1849 19.8984 59.0664 19.8711L59.0596 18.6133C59.1051 18.6178 59.1598 18.6224 59.2236 18.627C59.292 18.6315 59.3467 18.6338 59.3877 18.6338C59.6611 18.6338 59.889 18.5996 60.0713 18.5312C60.2536 18.4674 60.4017 18.3626 60.5156 18.2168C60.6341 18.071 60.7344 17.875 60.8164 17.6289L61.3496 16.1934ZM60.2148 9.60352L61.9717 15.1406L62.2656 16.877L61.124 17.1709L58.4375 9.60352H60.2148ZM67.8301 9.60352V17H66.1758V9.60352H67.8301ZM66.0664 7.66211C66.0664 7.41146 66.1484 7.2041 66.3125 7.04004C66.4811 6.87142 66.7135 6.78711 67.0098 6.78711C67.3014 6.78711 67.5316 6.87142 67.7002 7.04004C67.8688 7.2041 67.9531 7.41146 67.9531 7.66211C67.9531 7.9082 67.8688 8.11328 67.7002 8.27734C67.5316 8.44141 67.3014 8.52344 67.0098 8.52344C66.7135 8.52344 66.4811 8.44141 66.3125 8.27734C66.1484 8.11328 66.0664 7.9082 66.0664 7.66211ZM71.2686 11.1826V17H69.6211V9.60352H71.1729L71.2686 11.1826ZM70.9746 13.0283L70.4414 13.0215C70.446 12.4974 70.5189 12.0166 70.6602 11.5791C70.806 11.1416 71.0065 10.7656 71.2617 10.4512C71.5215 10.1367 71.8314 9.89518 72.1914 9.72656C72.5514 9.55339 72.9525 9.4668 73.3945 9.4668C73.75 9.4668 74.0713 9.51693 74.3584 9.61719C74.6501 9.71289 74.8984 9.87012 75.1035 10.0889C75.3132 10.3076 75.4727 10.5924 75.582 10.9434C75.6914 11.2897 75.7461 11.7158 75.7461 12.2217V17H74.0918V12.2148C74.0918 11.8594 74.0394 11.5791 73.9346 11.374C73.8343 11.1644 73.6862 11.0163 73.4902 10.9297C73.2988 10.8385 73.0596 10.793 72.7725 10.793C72.4899 10.793 72.237 10.8522 72.0137 10.9707C71.7904 11.0892 71.6012 11.251 71.4463 11.4561C71.2959 11.6611 71.1797 11.8981 71.0977 12.167C71.0156 12.4359 70.9746 12.723 70.9746 13.0283ZM82.165 9.60352H83.6621V16.7949C83.6621 17.4603 83.5208 18.0254 83.2383 18.4902C82.9557 18.9551 82.5615 19.3083 82.0557 19.5498C81.5498 19.7959 80.9642 19.9189 80.2988 19.9189C80.0163 19.9189 79.7018 19.8779 79.3555 19.7959C79.0137 19.7139 78.681 19.5817 78.3574 19.3994C78.0384 19.2217 77.7718 18.987 77.5576 18.6953L78.3301 17.7246C78.5944 18.0391 78.8861 18.2692 79.2051 18.415C79.5241 18.5609 79.859 18.6338 80.21 18.6338C80.5882 18.6338 80.9095 18.5632 81.1738 18.4219C81.4427 18.2852 81.6501 18.0824 81.7959 17.8135C81.9417 17.5446 82.0146 17.2165 82.0146 16.8291V11.2783L82.165 9.60352ZM77.1406 13.3838V13.2402C77.1406 12.6797 77.209 12.1693 77.3457 11.709C77.4824 11.2441 77.6784 10.8454 77.9336 10.5127C78.1888 10.1755 78.4987 9.91797 78.8633 9.74023C79.2279 9.55794 79.6403 9.4668 80.1006 9.4668C80.5791 9.4668 80.987 9.55339 81.3242 9.72656C81.666 9.89974 81.9508 10.1481 82.1787 10.4717C82.4066 10.7907 82.5843 11.1735 82.7119 11.6201C82.8441 12.0622 82.9421 12.5544 83.0059 13.0967V13.5547C82.9466 14.0833 82.8464 14.5664 82.7051 15.0039C82.5638 15.4414 82.377 15.8197 82.1445 16.1387C81.9121 16.4577 81.625 16.7038 81.2832 16.877C80.946 17.0501 80.5472 17.1367 80.0869 17.1367C79.6357 17.1367 79.2279 17.0433 78.8633 16.8564C78.5033 16.6696 78.1934 16.4076 77.9336 16.0703C77.6784 15.7331 77.4824 15.3366 77.3457 14.8809C77.209 14.4206 77.1406 13.9215 77.1406 13.3838ZM78.7881 13.2402V13.3838C78.7881 13.721 78.82 14.0355 78.8838 14.3271C78.9521 14.6188 79.0547 14.8763 79.1914 15.0996C79.3327 15.3184 79.5104 15.4915 79.7246 15.6191C79.9434 15.7422 80.2008 15.8037 80.4971 15.8037C80.8844 15.8037 81.2012 15.7217 81.4473 15.5576C81.6979 15.3936 81.8893 15.1725 82.0215 14.8945C82.1582 14.612 82.2539 14.2975 82.3086 13.9512V12.7139C82.2812 12.445 82.2243 12.1943 82.1377 11.9619C82.0557 11.7295 81.944 11.5267 81.8027 11.3535C81.6615 11.1758 81.4837 11.0391 81.2695 10.9434C81.0553 10.8431 80.8024 10.793 80.5107 10.793C80.2145 10.793 79.957 10.8568 79.7383 10.9844C79.5195 11.112 79.3395 11.2874 79.1982 11.5107C79.0615 11.734 78.959 11.9938 78.8906 12.29C78.8223 12.5863 78.7881 12.903 78.7881 13.2402ZM95.2559 15.6396V17H90.2588V15.6396H95.2559ZM90.7373 7.04688V17H89.0215V7.04688H90.7373ZM100.362 13.2881H97.7715V11.9277H100.362C100.813 11.9277 101.178 11.8548 101.456 11.709C101.734 11.5632 101.937 11.3626 102.064 11.1074C102.197 10.8477 102.263 10.5514 102.263 10.2188C102.263 9.9043 102.197 9.61035 102.064 9.33691C101.937 9.05892 101.734 8.83561 101.456 8.66699C101.178 8.49837 100.813 8.41406 100.362 8.41406H98.2979V17H96.582V7.04688H100.362C101.132 7.04688 101.786 7.18359 102.324 7.45703C102.867 7.72591 103.279 8.09961 103.562 8.57812C103.844 9.05208 103.985 9.5944 103.985 10.2051C103.985 10.8477 103.844 11.3991 103.562 11.8594C103.279 12.3197 102.867 12.6729 102.324 12.9189C101.786 13.165 101.132 13.2881 100.362 13.2881ZM109.509 14.9971C109.509 14.833 109.468 14.6849 109.386 14.5527C109.304 14.416 109.146 14.293 108.914 14.1836C108.686 14.0742 108.349 13.974 107.902 13.8828C107.51 13.7962 107.15 13.6937 106.822 13.5752C106.499 13.4521 106.221 13.304 105.988 13.1309C105.756 12.9577 105.576 12.7526 105.448 12.5156C105.321 12.2786 105.257 12.0052 105.257 11.6953C105.257 11.3945 105.323 11.1097 105.455 10.8408C105.587 10.5719 105.776 10.335 106.022 10.1299C106.269 9.9248 106.567 9.76302 106.918 9.64453C107.273 9.52604 107.67 9.4668 108.107 9.4668C108.727 9.4668 109.258 9.57161 109.7 9.78125C110.147 9.98633 110.489 10.2666 110.726 10.6221C110.963 10.973 111.081 11.3695 111.081 11.8115H109.434C109.434 11.6156 109.383 11.4333 109.283 11.2646C109.188 11.0915 109.042 10.9525 108.846 10.8477C108.65 10.7383 108.404 10.6836 108.107 10.6836C107.825 10.6836 107.59 10.7292 107.403 10.8203C107.221 10.9069 107.084 11.0208 106.993 11.1621C106.907 11.3034 106.863 11.4583 106.863 11.627C106.863 11.75 106.886 11.8617 106.932 11.9619C106.982 12.0576 107.064 12.1465 107.178 12.2285C107.292 12.306 107.447 12.3789 107.643 12.4473C107.843 12.5156 108.094 12.5817 108.395 12.6455C108.96 12.764 109.445 12.9167 109.851 13.1035C110.261 13.2858 110.575 13.5228 110.794 13.8145C111.013 14.1016 111.122 14.4661 111.122 14.9082C111.122 15.2363 111.051 15.5371 110.91 15.8105C110.773 16.0794 110.573 16.3141 110.309 16.5146C110.044 16.7106 109.728 16.8633 109.358 16.9727C108.994 17.082 108.584 17.1367 108.128 17.1367C107.458 17.1367 106.891 17.0182 106.426 16.7812C105.961 16.5397 105.608 16.2321 105.366 15.8584C105.129 15.4801 105.011 15.0882 105.011 14.6826H106.604C106.622 14.988 106.706 15.2318 106.856 15.4141C107.011 15.5918 107.203 15.7217 107.431 15.8037C107.663 15.8812 107.902 15.9199 108.148 15.9199C108.445 15.9199 108.693 15.8812 108.894 15.8037C109.094 15.7217 109.247 15.6123 109.352 15.4756C109.456 15.3343 109.509 15.1748 109.509 14.9971Z" fill="#191919"/>
<rect x="0.5" y="0.5" width="127" height="23" rx="11.5" stroke="#64b54d"/>
</svg>
