<svg width="121" height="56" viewBox="0 0 121 56" fill="none" xmlns="http://www.w3.org/2000/svg">
<path d="M0 4C0 1.79086 1.79086 0 4 0H121V56H0V4Z" fill="#FFFBF1"/>
<path d="M24.5 24L28.5 28L24.5 32" stroke="#64b54d" stroke-width="1.5" stroke-linecap="round" stroke-linejoin="round"/>
<rect x="16.5" y="18" width="19" height="20" rx="2.5" stroke="#64b54d"/>
<path d="M45.9434 28.0098V27.7432C45.9434 27.3148 46.0778 26.9639 46.3467 26.6904C46.6201 26.417 46.9893 26.2803 47.4541 26.2803C47.9235 26.2803 48.2949 26.417 48.5684 26.6904C48.8418 26.9639 48.9785 27.3148 48.9785 27.7432V28.0098C48.9785 28.4336 48.8418 28.7822 48.5684 29.0557C48.2995 29.3245 47.9303 29.459 47.4609 29.459C46.9961 29.459 46.627 29.3245 46.3535 29.0557C46.0801 28.7822 45.9434 28.4336 45.9434 28.0098ZM50.8379 28.0098V27.7432C50.8379 27.3148 50.9723 26.9639 51.2412 26.6904C51.5146 26.417 51.8838 26.2803 52.3486 26.2803C52.818 26.2803 53.1895 26.417 53.4629 26.6904C53.7363 26.9639 53.873 27.3148 53.873 27.7432V28.0098C53.873 28.4336 53.7363 28.7822 53.4629 29.0557C53.194 29.3245 52.8249 29.459 52.3555 29.459C51.8906 29.459 51.5215 29.3245 51.248 29.0557C50.9746 28.7822 50.8379 28.4336 50.8379 28.0098ZM55.7324 28.0098V27.7432C55.7324 27.3148 55.8669 26.9639 56.1357 26.6904C56.4092 26.417 56.7783 26.2803 57.2432 26.2803C57.7126 26.2803 58.084 26.417 58.3574 26.6904C58.6309 26.9639 58.7676 27.3148 58.7676 27.7432V28.0098C58.7676 28.4336 58.6309 28.7822 58.3574 29.0557C58.0885 29.3245 57.7194 29.459 57.25 29.459C56.7852 29.459 56.416 29.3245 56.1426 29.0557C55.8691 28.7822 55.7324 28.4336 55.7324 28.0098Z" fill="#717F8C"/>
</svg>
