<svg width="27" height="23" viewBox="0 0 27 23" fill="none" xmlns="http://www.w3.org/2000/svg">
<path className="svg-icon" d="M20.8841 11.3876C20.8841 16.6324 16.6324 20.8841 11.3876 20.8841C6.14276 20.8841 1.891 16.6324 1.891 11.3876C1.891 6.14276 6.14276 1.891 11.3876 1.891C16.6324 1.891 20.8841 6.14276 20.8841 11.3876ZM11.3876 21.8351C17.1576 21.8351 21.8351 17.1576 21.8351 11.3876C21.8351 5.61753 17.1576 0.94 11.3876 0.94C5.61753 0.94 0.94 5.61753 0.94 11.3876C0.94 17.1576 5.61753 21.8351 11.3876 21.8351Z" fill="white" stroke="white" stroke-width="0.12"/>
<path className="svg-icon" d="M26.9629 15.5879C27.0458 15.7812 26.9836 15.9746 26.8385 16.125L25.9475 16.9629C25.9682 17.1348 25.9889 17.3281 25.9889 17.5C25.9889 17.6934 25.9682 17.8867 25.9475 18.0586L26.8385 18.8965C26.9836 19.0469 27.0458 19.2402 26.9629 19.4336C26.88 19.6914 26.7764 19.9277 26.652 20.1641L26.5484 20.3359C26.4034 20.5723 26.2583 20.8086 26.0926 21.0234C25.9682 21.1738 25.761 21.2168 25.5745 21.1523L24.4348 20.7871C24.1447 21.002 23.8339 21.1738 23.5231 21.3242L23.2537 22.5488C23.2122 22.7422 23.0672 22.8926 22.8807 22.9355C22.5906 22.9785 22.3005 23 21.9896 23C21.6995 23 21.4094 22.9785 21.1193 22.9355C20.9328 22.8926 20.7878 22.7422 20.7463 22.5488L20.4769 21.3242C20.1661 21.1738 19.8553 21.002 19.5652 20.7871L18.4255 21.1523C18.239 21.2168 18.0318 21.1738 17.9074 21.0234C17.7417 20.8086 17.5966 20.5723 17.4516 20.3359L17.348 20.1641C17.2236 19.9277 17.12 19.6914 17.0371 19.4336C16.9542 19.2402 17.0164 19.0469 17.1615 18.8965L18.0525 18.0586C18.0318 17.8867 18.0318 17.6934 18.0318 17.5C18.0318 17.3281 18.0318 17.1348 18.0525 16.9629L17.1615 16.125C17.0164 15.9746 16.9542 15.7812 17.0371 15.5879C17.12 15.3301 17.2236 15.0937 17.348 14.8574L17.4516 14.6855C17.5966 14.4492 17.7417 14.2129 17.9074 13.998C18.0318 13.8477 18.239 13.8047 18.4255 13.8691L19.5652 14.2344C19.8553 14.0195 20.1661 13.8262 20.4769 13.6973L20.7463 12.4727C20.7878 12.2793 20.9328 12.1289 21.1193 12.0859C21.4094 12.043 21.6995 12 22.0104 12C22.3005 12 22.5906 12.043 22.8807 12.0859C23.0672 12.1289 23.2122 12.2793 23.2537 12.4727L23.5231 13.6973C23.8339 13.8262 24.1447 14.0195 24.4348 14.2344L25.5745 13.8691C25.761 13.8047 25.9682 13.8477 26.0926 13.998C26.2583 14.2129 26.4034 14.4492 26.5484 14.6855L26.652 14.8574C26.7764 15.0937 26.88 15.3301 26.9629 15.5879ZM22.0104 19.2187C22.9221 19.2187 23.6681 18.4668 23.6681 17.5C23.6681 16.5547 22.9221 15.7812 22.0104 15.7812C21.0779 15.7812 20.3526 16.5547 20.3526 17.5C20.3526 18.4668 21.0779 19.2187 22.0104 19.2187Z" fill="white"/>
<path className="svg-icon" d="M12.2814 5V7.04471H11.162V5H12.2814ZM12.1433 16.1673V18H11.0312V16.1673H12.1433ZM13.2409 13.9584C13.2409 13.694 13.1828 13.4638 13.0665 13.2678C12.955 13.0672 12.7709 12.8871 12.514 12.7275C12.2572 12.5634 11.9131 12.4107 11.4818 12.2693C10.8615 12.0642 10.3188 11.8339 9.85358 11.5786C9.39322 11.3188 9.03461 10.9996 8.77778 10.6213C8.52579 10.2383 8.39979 9.76188 8.39979 9.192C8.39979 8.63125 8.53548 8.14571 8.80685 7.7354C9.08307 7.32509 9.46591 7.00824 9.95535 6.78485C10.4448 6.56146 11.0166 6.44976 11.6708 6.44976C12.1748 6.44976 12.6279 6.52043 13.0301 6.66176C13.4372 6.80309 13.7837 7.01052 14.0696 7.28406C14.3555 7.5576 14.5736 7.89497 14.7238 8.29616C14.8789 8.69279 14.9564 9.14869 14.9564 9.66386H13.2118C13.2118 9.37208 13.1755 9.11222 13.1028 8.88427C13.035 8.65176 12.9332 8.45573 12.7975 8.29616C12.6618 8.13204 12.4971 8.00666 12.3032 7.92004C12.1142 7.83342 11.8986 7.79011 11.6563 7.79011C11.3122 7.79011 11.0287 7.85166 10.8058 7.97475C10.5829 8.09328 10.4181 8.25741 10.3115 8.46712C10.2098 8.67684 10.1589 8.91618 10.1589 9.18517C10.1589 9.44503 10.2122 9.67298 10.3188 9.86902C10.4254 10.0651 10.6071 10.2429 10.864 10.4024C11.1256 10.5574 11.4843 10.7147 11.9398 10.8743C12.5649 11.084 13.1052 11.3188 13.5607 11.5786C14.0211 11.8339 14.3749 12.1508 14.622 12.5292C14.874 12.903 15 13.3749 15 13.9448C15 14.5329 14.8546 15.0321 14.5639 15.4424C14.278 15.8527 13.8757 16.165 13.3572 16.3793C12.8435 16.589 12.2451 16.6938 11.5618 16.6938C11.1305 16.6938 10.7016 16.6414 10.2752 16.5366C9.85358 16.4271 9.47075 16.2493 9.12669 16.0032C8.78262 15.757 8.50883 15.431 8.3053 15.0252C8.10177 14.6149 8 14.1134 8 13.5208H9.75909C9.75909 13.8764 9.80997 14.1727 9.91173 14.4098C10.0135 14.6469 10.1516 14.8338 10.3261 14.9705C10.5005 15.1073 10.6944 15.2053 10.9076 15.2646C11.1256 15.3239 11.3437 15.3535 11.5618 15.3535C11.9252 15.3535 12.2305 15.2965 12.4777 15.1825C12.7297 15.064 12.9187 14.8999 13.0447 14.6902C13.1755 14.4759 13.2409 14.232 13.2409 13.9584Z" fill="white"/>
</svg>
