<svg width="15" height="15" viewBox="0 0 15 15" fill="none" xmlns="http://www.w3.org/2000/svg">
<path d="M4.875 7.75C4.875 6.30078 6.02344 5.125 7.5 5.125C8.94922 5.125 10.125 6.30078 10.125 7.75C10.125 9.19922 8.94922 10.375 7.5 10.375C6.02344 10.375 4.875 9.19922 4.875 7.75ZM7.5 6.4375C6.76172 6.4375 6.1875 7.03906 6.1875 7.75C6.1875 8.48828 6.76172 9.0625 7.5 9.0625C8.21094 9.0625 8.8125 8.48828 8.8125 7.75C8.8125 7.03906 8.21094 6.4375 7.5 6.4375ZM8.51172 0.75C9.11328 0.75 9.63281 1.1875 9.76953 1.76172L9.98828 2.66406C10.2344 2.77344 10.4531 2.91016 10.6445 3.04688L11.5469 2.77344C12.1211 2.60938 12.75 2.85547 13.0508 3.375L14.0625 5.15234C14.3633 5.67188 14.2539 6.32812 13.8164 6.73828L13.1602 7.36719C13.1602 7.50391 13.1875 7.64062 13.1875 7.75C13.1875 7.88672 13.1602 8.02344 13.1602 8.13281L13.8164 8.78906C14.2539 9.19922 14.3633 9.85547 14.0625 10.375L13.0508 12.1523C12.75 12.6719 12.1211 12.918 11.5469 12.7539L10.6445 12.4805C10.4531 12.6172 10.2344 12.7539 9.98828 12.8633L9.76953 13.7656C9.63281 14.3398 9.11328 14.75 8.51172 14.75H6.46094C5.85938 14.75 5.33984 14.3398 5.20312 13.7656L4.98438 12.8633C4.73828 12.7539 4.51953 12.6172 4.32812 12.4805L3.42578 12.7539C2.85156 12.918 2.22266 12.6719 1.92188 12.1523L0.910156 10.375C0.609375 9.85547 0.71875 9.19922 1.15625 8.78906L1.8125 8.13281C1.8125 8.02344 1.8125 7.88672 1.8125 7.75C1.8125 7.64062 1.8125 7.50391 1.8125 7.36719L1.15625 6.73828C0.71875 6.32812 0.609375 5.67188 0.910156 5.15234L1.92188 3.375C2.22266 2.85547 2.85156 2.60938 3.42578 2.77344L4.32812 3.04688C4.51953 2.91016 4.73828 2.77344 4.98438 2.66406L5.20312 1.76172C5.33984 1.1875 5.85938 0.75 6.46094 0.75H8.51172ZM6.10547 3.59375L5.80469 3.73047C5.44922 3.86719 5.12109 4.05859 4.84766 4.27734L4.57422 4.49609L3.07031 4.03125L2.05859 5.80859L3.17969 6.875L3.15234 7.20312C3.125 7.39453 3.125 7.58594 3.125 7.75C3.125 7.94141 3.125 8.13281 3.15234 8.32422L3.17969 8.65234L2.05859 9.71875L3.07031 11.4961L4.57422 11.0312L4.84766 11.25C5.12109 11.4688 5.44922 11.6602 5.80469 11.7969L6.10547 11.9336L6.46094 13.4375H8.51172L8.86719 11.9336L9.16797 11.7969C9.52344 11.6602 9.85156 11.4688 10.125 11.25L10.3984 11.0312L11.9023 11.4961L12.9141 9.71875L11.793 8.65234L11.8203 8.32422C11.8477 8.13281 11.875 7.94141 11.875 7.75C11.875 7.58594 11.8477 7.39453 11.8203 7.20312L11.793 6.875L12.9141 5.80859L11.9023 4.03125L10.3984 4.49609L10.125 4.27734C9.85156 4.05859 9.52344 3.86719 9.16797 3.73047L8.86719 3.59375L8.51172 2.0625H6.46094L6.10547 3.59375Z" fill="#5D6E82"/>
</svg>
