<svg width="11" height="12" viewBox="0 0 11 12" fill="none" xmlns="http://www.w3.org/2000/svg">
<path d="M10.3295 4.08789C10.4154 4.28125 10.351 4.47461 10.2006 4.625L9.27677 5.46289C9.29826 5.63477 9.31974 5.82812 9.31974 6C9.31974 6.19336 9.29826 6.38672 9.27677 6.55859L10.2006 7.39648C10.351 7.54688 10.4154 7.74023 10.3295 7.93359C10.2436 8.19141 10.1361 8.42773 10.0072 8.66406L9.89982 8.83594C9.74943 9.07227 9.59904 9.30859 9.42716 9.52344C9.29826 9.67383 9.08341 9.7168 8.89005 9.65234L7.70841 9.28711C7.40763 9.50195 7.08537 9.67383 6.7631 9.82422L6.4838 11.0488C6.44083 11.2422 6.29044 11.3926 6.09708 11.4355C5.7963 11.4785 5.49552 11.5 5.17326 11.5C4.87248 11.5 4.57169 11.4785 4.27091 11.4355C4.07755 11.3926 3.92716 11.2422 3.88419 11.0488L3.6049 9.82422C3.28263 9.67383 2.96037 9.50195 2.65959 9.28711L1.47794 9.65234C1.28459 9.7168 1.06974 9.67383 0.940835 9.52344C0.76896 9.30859 0.61857 9.07227 0.468179 8.83594L0.360757 8.66406C0.231851 8.42773 0.124429 8.19141 0.0384915 7.93359C-0.047446 7.74023 0.0170071 7.54688 0.167398 7.39648L1.09123 6.55859C1.06974 6.38672 1.06974 6.19336 1.06974 6C1.06974 5.82812 1.06974 5.63477 1.09123 5.46289L0.167398 4.625C0.0170071 4.47461 -0.047446 4.28125 0.0384915 4.08789C0.124429 3.83008 0.231851 3.59375 0.360757 3.35742L0.468179 3.18555C0.61857 2.94922 0.76896 2.71289 0.940835 2.49805C1.06974 2.34766 1.28459 2.30469 1.47794 2.36914L2.65959 2.73438C2.96037 2.51953 3.28263 2.32617 3.6049 2.19727L3.88419 0.972656C3.92716 0.779297 4.07755 0.628906 4.27091 0.585938C4.57169 0.542969 4.87248 0.5 5.19474 0.5C5.49552 0.5 5.7963 0.542969 6.09708 0.585938C6.29044 0.628906 6.44083 0.779297 6.4838 0.972656L6.7631 2.19727C7.08537 2.32617 7.40763 2.51953 7.70841 2.73438L8.89005 2.36914C9.08341 2.30469 9.29826 2.34766 9.42716 2.49805C9.59904 2.71289 9.74943 2.94922 9.89982 3.18555L10.0072 3.35742C10.1361 3.59375 10.2436 3.83008 10.3295 4.08789ZM5.19474 7.71875C6.14005 7.71875 6.91349 6.9668 6.91349 6C6.91349 5.05469 6.14005 4.28125 5.19474 4.28125C4.22794 4.28125 3.47599 5.05469 3.47599 6C3.47599 6.9668 4.22794 7.71875 5.19474 7.71875Z" fill="#64b54d"/>
</svg>
