<svg width="59" height="24" viewBox="0 0 59 24" fill="none" xmlns="http://www.w3.org/2000/svg">
<rect x="0.5" y="0.5" width="58" height="23" rx="11.5" fill="#EBF2FA"/>
<path d="M28.6543 11.9141V15.7148C28.513 15.9017 28.292 16.1068 27.9912 16.3301C27.695 16.5488 27.3008 16.738 26.8086 16.8975C26.3164 17.057 25.7035 17.1367 24.9697 17.1367C24.3454 17.1367 23.7734 17.0319 23.2539 16.8223C22.7344 16.6081 22.2855 16.2959 21.9072 15.8857C21.5335 15.4756 21.2441 14.9766 21.0391 14.3887C20.834 13.7962 20.7314 13.1217 20.7314 12.3652V11.6748C20.7314 10.9229 20.8249 10.2529 21.0117 9.66504C21.2031 9.07259 21.4766 8.57129 21.832 8.16113C22.1875 7.75098 22.6159 7.44108 23.1172 7.23145C23.623 7.01725 24.195 6.91016 24.833 6.91016C25.6488 6.91016 26.3232 7.04688 26.8564 7.32031C27.3942 7.58919 27.8089 7.96289 28.1006 8.44141C28.3923 8.91992 28.5768 9.4668 28.6543 10.082H26.9727C26.918 9.73568 26.8109 9.42578 26.6514 9.15234C26.4964 8.87891 26.2731 8.66471 25.9814 8.50977C25.6943 8.35026 25.3206 8.27051 24.8604 8.27051C24.4639 8.27051 24.1152 8.3457 23.8145 8.49609C23.5137 8.64648 23.263 8.86751 23.0625 9.15918C22.8665 9.45085 22.7184 9.80632 22.6182 10.2256C22.5179 10.6449 22.4678 11.1234 22.4678 11.6611V12.3652C22.4678 12.9121 22.5247 13.3975 22.6387 13.8213C22.7572 14.2451 22.9258 14.6029 23.1445 14.8945C23.3678 15.1862 23.639 15.4072 23.958 15.5576C24.277 15.7035 24.637 15.7764 25.0381 15.7764C25.43 15.7764 25.7513 15.7445 26.002 15.6807C26.2526 15.6123 26.4508 15.5326 26.5967 15.4414C26.7471 15.3457 26.8633 15.2546 26.9453 15.168V13.1924H24.874V11.9141H28.6543ZM34.335 13.2881H31.7441V11.9277H34.335C34.7861 11.9277 35.1507 11.8548 35.4287 11.709C35.7067 11.5632 35.9095 11.3626 36.0371 11.1074C36.1693 10.8477 36.2354 10.5514 36.2354 10.2188C36.2354 9.9043 36.1693 9.61035 36.0371 9.33691C35.9095 9.05892 35.7067 8.83561 35.4287 8.66699C35.1507 8.49837 34.7861 8.41406 34.335 8.41406H32.2705V17H30.5547V7.04688H34.335C35.1051 7.04688 35.7591 7.18359 36.2969 7.45703C36.8392 7.72591 37.2516 8.09961 37.5342 8.57812C37.8167 9.05208 37.958 9.5944 37.958 10.2051C37.958 10.8477 37.8167 11.3991 37.5342 11.8594C37.2516 12.3197 36.8392 12.6729 36.2969 12.9189C35.7591 13.165 35.1051 13.2881 34.335 13.2881Z" fill="#191919"/>
<rect x="0.5" y="0.5" width="58" height="23" rx="11.5" stroke="#64b54d"/>
</svg>
