<svg width="15" height="15" viewBox="0 0 15 15" fill="none" xmlns="http://www.w3.org/2000/svg">
<path d="M10.8467 1.43359C11.6123 0.667969 12.8428 0.667969 13.6084 1.43359L13.9639 1.78906C14.7295 2.55469 14.7295 3.78516 13.9639 4.55078L8.5498 9.96484C8.33105 10.1836 8.03027 10.375 7.70215 10.457L4.96777 11.25C4.74902 11.3047 4.50293 11.25 4.33887 11.0586C4.14746 10.8945 4.09277 10.6484 4.14746 10.4297L4.94043 7.69531C5.02246 7.36719 5.21387 7.06641 5.43262 6.84766L10.8467 1.43359ZM12.6787 2.36328C12.4326 2.11719 12.0225 2.11719 11.7764 2.36328L10.9561 3.15625L12.2412 4.44141L13.0342 3.62109C13.2803 3.375 13.2803 2.96484 13.0342 2.71875L12.6787 2.36328ZM6.19824 8.05078L5.7334 9.66406L7.34668 9.19922C7.45605 9.17188 7.53809 9.11719 7.62012 9.03516L11.3115 5.34375L10.0537 4.08594L6.3623 7.77734C6.28027 7.85938 6.22559 7.94141 6.19824 8.05078ZM6.11621 2.5C6.47168 2.5 6.77246 2.80078 6.77246 3.15625C6.77246 3.53906 6.47168 3.8125 6.11621 3.8125H3.05371C2.4248 3.8125 1.95996 4.30469 1.95996 4.90625V12.3438C1.95996 12.9727 2.4248 13.4375 3.05371 13.4375H10.4912C11.0928 13.4375 11.585 12.9727 11.585 12.3438V9.28125C11.585 8.92578 11.8584 8.625 12.2412 8.625C12.5967 8.625 12.8975 8.92578 12.8975 9.28125V12.3438C12.8975 13.6836 11.8037 14.75 10.4912 14.75H3.05371C1.71387 14.75 0.647461 13.6836 0.647461 12.3438V4.90625C0.647461 3.59375 1.71387 2.5 3.05371 2.5H6.11621Z" fill="#191919"/>
</svg>
