<svg width="14" height="14" viewBox="0 0 14 14" fill="none" xmlns="http://www.w3.org/2000/svg">
<path d="M2.75 0C3.4375 0 4 0.5625 4 1.25V2.75C4 3.46875 3.4375 4 2.75 4H1.25C0.53125 4 0 3.46875 0 2.75V1.25C0 0.5625 0.53125 0 1.25 0H2.75ZM2.75 1.25H1.25V2.75H2.75V1.25ZM2.75 5C3.4375 5 4 5.5625 4 6.25V7.75C4 8.46875 3.4375 9 2.75 9H1.25C0.53125 9 0 8.46875 0 7.75V6.25C0 5.5625 0.53125 5 1.25 5H2.75ZM2.75 6.25H1.25V7.75H2.75V6.25ZM0 11.25C0 10.5625 0.53125 10 1.25 10H2.75C3.4375 10 4 10.5625 4 11.25V12.75C4 13.4688 3.4375 14 2.75 14H1.25C0.53125 14 0 13.4688 0 12.75V11.25ZM1.25 12.75H2.75V11.25H1.25V12.75ZM7.75 0C8.4375 0 9 0.5625 9 1.25V2.75C9 3.46875 8.4375 4 7.75 4H6.25C5.53125 4 5 3.46875 5 2.75V1.25C5 0.5625 5.53125 0 6.25 0H7.75ZM7.75 1.25H6.25V2.75H7.75V1.25ZM5 6.25C5 5.5625 5.53125 5 6.25 5H7.75C8.4375 5 9 5.5625 9 6.25V7.75C9 8.46875 8.4375 9 7.75 9H6.25C5.53125 9 5 8.46875 5 7.75V6.25ZM6.25 7.75H7.75V6.25H6.25V7.75ZM7.75 10C8.4375 10 9 10.5625 9 11.25V12.75C9 13.4688 8.4375 14 7.75 14H6.25C5.53125 14 5 13.4688 5 12.75V11.25C5 10.5625 5.53125 10 6.25 10H7.75ZM7.75 11.25H6.25V12.75H7.75V11.25ZM10 1.25C10 0.5625 10.5312 0 11.25 0H12.75C13.4375 0 14 0.5625 14 1.25V2.75C14 3.46875 13.4375 4 12.75 4H11.25C10.5312 4 10 3.46875 10 2.75V1.25ZM11.25 2.75H12.75V1.25H11.25V2.75ZM12.75 5C13.4375 5 14 5.5625 14 6.25V7.75C14 8.46875 13.4375 9 12.75 9H11.25C10.5312 9 10 8.46875 10 7.75V6.25C10 5.5625 10.5312 5 11.25 5H12.75ZM12.75 6.25H11.25V7.75H12.75V6.25ZM10 11.25C10 10.5625 10.5312 10 11.25 10H12.75C13.4375 10 14 10.5625 14 11.25V12.75C14 13.4688 13.4375 14 12.75 14H11.25C10.5312 14 10 13.4688 10 12.75V11.25ZM11.25 12.75H12.75V11.25H11.25V12.75Z" fill="#64b54d"/>
</svg>
