<svg width="18" height="22" viewBox="0 0 18 22" fill="none" xmlns="http://www.w3.org/2000/svg">
<path d="M3 0.5C2.40326 0.5 1.83097 0.737053 1.40901 1.15901C0.987053 1.58097 0.75 2.15326 0.75 2.75V19.25C0.75 19.8467 0.987053 20.419 1.40901 20.841C1.83097 21.2629 2.40326 21.5 3 21.5H15C15.5967 21.5 16.169 21.2629 16.591 20.841C17.0129 20.419 17.25 19.8467 17.25 19.25V7.121C17.2497 6.52457 17.0126 5.95267 16.5907 5.531L12.2197 1.1585C11.7978 0.736789 11.2256 0.499929 10.629 0.5H3ZM2.25 2.75C2.25 2.55109 2.32902 2.36032 2.46967 2.21967C2.61032 2.07902 2.80109 2 3 2H9.75V5.75C9.75 6.34674 9.98705 6.91903 10.409 7.34099C10.831 7.76295 11.4033 8 12 8H15.75V19.25C15.75 19.4489 15.671 19.6397 15.5303 19.7803C15.3897 19.921 15.1989 20 15 20H3C2.80109 20 2.61032 19.921 2.46967 19.7803C2.32902 19.6397 2.25 19.4489 2.25 19.25V2.75ZM15.4395 6.5H12C11.8011 6.5 11.6103 6.42098 11.4697 6.28033C11.329 6.13968 11.25 5.94891 11.25 5.75V2.3105L15.4395 6.5ZM6 8.75C6 8.55109 5.92098 8.36032 5.78033 8.21967C5.63968 8.07902 5.44891 8 5.25 8C5.05109 8 4.86032 8.07902 4.71967 8.21967C4.57902 8.36032 4.5 8.55109 4.5 8.75V17.75C4.5 17.9489 4.57902 18.1397 4.71967 18.2803C4.86032 18.421 5.05109 18.5 5.25 18.5C5.44891 18.5 5.63968 18.421 5.78033 18.2803C5.92098 18.1397 6 17.9489 6 17.75V8.75ZM9.75 14.75C9.75 14.5511 9.67098 14.3603 9.53033 14.2197C9.38968 14.079 9.19891 14 9 14C8.80109 14 8.61032 14.079 8.46967 14.2197C8.32902 14.3603 8.25 14.5511 8.25 14.75V17.75C8.25 17.9489 8.32902 18.1397 8.46967 18.2803C8.61032 18.421 8.80109 18.5 9 18.5C9.19891 18.5 9.38968 18.421 9.53033 18.2803C9.67098 18.1397 9.75 17.9489 9.75 17.75V14.75ZM12.75 11C12.9489 11 13.1397 11.079 13.2803 11.2197C13.421 11.3603 13.5 11.5511 13.5 11.75V17.75C13.5 17.9489 13.421 18.1397 13.2803 18.2803C13.1397 18.421 12.9489 18.5 12.75 18.5C12.5511 18.5 12.3603 18.421 12.2197 18.2803C12.079 18.1397 12 17.9489 12 17.75V11.75C12 11.5511 12.079 11.3603 12.2197 11.2197C12.3603 11.079 12.5511 11 12.75 11Z" fill="white"/>
</svg>
