<svg width="13" height="13" viewBox="0 0 13 13" fill="none" xmlns="http://www.w3.org/2000/svg">
<path d="M6.25 0.500366C2.92188 0.500366 0.25 3.19568 0.25 6.50037C0.25 9.82849 2.92188 12.5004 6.25 12.5004C9.55469 12.5004 12.25 9.82849 12.25 6.50037C12.25 3.19568 9.55469 0.500366 6.25 0.500366ZM6.25 11.3754C3.55469 11.3754 1.375 9.19568 1.375 6.50037C1.375 3.82849 3.55469 1.62537 6.25 1.62537C8.92188 1.62537 11.125 3.82849 11.125 6.50037C11.125 9.19568 8.92188 11.3754 6.25 11.3754ZM7.1875 8.37537H6.8125V6.31287C6.8125 6.00818 6.55469 5.75037 6.25 5.75037H5.5C5.17188 5.75037 4.9375 6.00818 4.9375 6.31287C4.9375 6.64099 5.17188 6.87537 5.5 6.87537H5.6875V8.37537H5.3125C4.98438 8.37537 4.75 8.63318 4.75 8.93787C4.75 9.26599 4.98438 9.50037 5.3125 9.50037H7.1875C7.49219 9.50037 7.75 9.26599 7.75 8.93787C7.75 8.63318 7.49219 8.37537 7.1875 8.37537ZM6.25 5.00037C6.64844 5.00037 7 4.67224 7 4.25037C7 3.85193 6.64844 3.50037 6.25 3.50037C5.82812 3.50037 5.5 3.85193 5.5 4.25037C5.5 4.67224 5.82812 5.00037 6.25 5.00037Z" fill="#6B7280"/>
</svg>
