<svg width="24" height="24" viewBox="0 0 24 24" fill="none" xmlns="http://www.w3.org/2000/svg">
<path d="M10.998 9.00098H12.998V7.00098H10.998M11.998 20.001C7.58805 20.001 3.99805 16.411 3.99805 12.001C3.99805 7.59098 7.58805 4.00098 11.998 4.00098C16.408 4.00098 19.998 7.59098 19.998 12.001C19.998 16.411 16.408 20.001 11.998 20.001ZM11.998 2.00098C10.6848 2.00098 9.38447 2.25963 8.17121 2.76218C6.95796 3.26473 5.85556 4.00132 4.92698 4.92991C3.05162 6.80527 1.99805 9.34881 1.99805 12.001C1.99805 14.6531 3.05162 17.1967 4.92698 19.072C5.85556 20.0006 6.95796 20.7372 8.17121 21.2398C9.38447 21.7423 10.6848 22.001 11.998 22.001C14.6502 22.001 17.1938 20.9474 19.0691 19.072C20.9445 17.1967 21.998 14.6531 21.998 12.001C21.998 10.6878 21.7394 9.3874 21.2368 8.17414C20.7343 6.96089 19.9977 5.85849 19.0691 4.92991C18.1405 4.00132 17.0381 3.26473 15.8249 2.76218C14.6116 2.25963 13.3113 2.00098 11.998 2.00098ZM10.998 17.001H12.998V11.001H10.998V17.001Z" fill="white"/>
</svg>
