<svg width="20" height="17" viewBox="0 0 20 17" fill="none" xmlns="http://www.w3.org/2000/svg">
<path d="M2.8125 0.375C3.32031 0.375 3.75 0.804688 3.75 1.3125V3.1875C3.75 3.73438 3.32031 4.125 2.8125 4.125V7.5625H5C5 7.05469 5.39062 6.625 5.9375 6.625H7.8125C8.32031 6.625 8.75 7.05469 8.75 7.5625V9.4375C8.75 9.98438 8.32031 10.375 7.8125 10.375H5.9375C5.39062 10.375 5 9.98438 5 9.4375H2.8125V13.5C2.8125 13.6953 2.92969 13.8125 3.125 13.8125H5C5 13.3047 5.39062 12.875 5.9375 12.875H7.8125C8.32031 12.875 8.75 13.3047 8.75 13.8125V15.6875C8.75 16.2344 8.32031 16.625 7.8125 16.625H5.9375C5.39062 16.625 5 16.2344 5 15.6875H3.125C1.91406 15.6875 0.9375 14.7109 0.9375 13.5V4.125C0.390625 4.125 0 3.73438 0 3.1875V1.3125C0 0.804688 0.390625 0.375 0.9375 0.375H2.8125ZM6.25 2.25C6.25 1.58594 6.79688 1 7.5 1H18.75C19.4141 1 20 1.58594 20 2.25C20 2.95312 19.4141 3.5 18.75 3.5H7.5C6.79688 3.5 6.25 2.95312 6.25 2.25ZM11.25 8.5C11.25 7.83594 11.7969 7.25 12.5 7.25H18.75C19.4141 7.25 20 7.83594 20 8.5C20 9.20312 19.4141 9.75 18.75 9.75H12.5C11.7969 9.75 11.25 9.20312 11.25 8.5ZM11.25 14.75C11.25 14.0859 11.7969 13.5 12.5 13.5H18.75C19.4141 13.5 20 14.0859 20 14.75C20 15.4531 19.4141 16 18.75 16H12.5C11.7969 16 11.25 15.4531 11.25 14.75Z" fill="#717F8C"/>
</svg>
