<svg width="15" height="12" viewBox="0 0 15 12" fill="none" xmlns="http://www.w3.org/2000/svg">
<path d="M2.46875 0.0625C2.82422 0.0625 3.125 0.363281 3.125 0.71875V2.03125C3.125 2.41406 2.82422 2.6875 2.46875 2.6875V5.09375H4C4 4.73828 4.27344 4.4375 4.65625 4.4375H5.96875C6.32422 4.4375 6.625 4.73828 6.625 5.09375V6.40625C6.625 6.78906 6.32422 7.0625 5.96875 7.0625H4.65625C4.27344 7.0625 4 6.78906 4 6.40625H2.46875V9.25C2.46875 9.38672 2.55078 9.46875 2.6875 9.46875H4C4 9.11328 4.27344 8.8125 4.65625 8.8125H5.96875C6.32422 8.8125 6.625 9.11328 6.625 9.46875V10.7812C6.625 11.1641 6.32422 11.4375 5.96875 11.4375H4.65625C4.27344 11.4375 4 11.1641 4 10.7812H2.6875C1.83984 10.7812 1.15625 10.0977 1.15625 9.25V2.6875C0.773438 2.6875 0.5 2.41406 0.5 2.03125V0.71875C0.5 0.363281 0.773438 0.0625 1.15625 0.0625H2.46875ZM4.875 1.375C4.875 1.01953 5.14844 0.71875 5.53125 0.71875H13.8438C14.1992 0.71875 14.5 1.01953 14.5 1.375C14.5 1.75781 14.1992 2.03125 13.8438 2.03125H5.53125C5.14844 2.03125 4.875 1.75781 4.875 1.375ZM8.375 5.75C8.375 5.39453 8.64844 5.09375 9.03125 5.09375H13.8438C14.1992 5.09375 14.5 5.39453 14.5 5.75C14.5 6.13281 14.1992 6.40625 13.8438 6.40625H9.03125C8.64844 6.40625 8.375 6.13281 8.375 5.75ZM8.375 10.125C8.375 9.76953 8.64844 9.46875 9.03125 9.46875H13.8438C14.1992 9.46875 14.5 9.76953 14.5 10.125C14.5 10.5078 14.1992 10.7812 13.8438 10.7812H9.03125C8.64844 10.7812 8.375 10.5078 8.375 10.125Z" fill="#5D6E82"/>
</svg>
