<svg width="18" height="24" viewBox="0 0 18 24" fill="none" xmlns="http://www.w3.org/2000/svg">
    <path className="svg-icon" d="M16.8917 12.606L13.4631 16.0346C13.2958 16.2019 13.0764 16.2857 12.8571 16.2857C12.6379 16.2857 12.4185 16.2019 12.2511 16.0346C11.9162 15.6996 11.9162 15.1573 12.2511 14.8226L14.2166 12.8571H6C5.52621 12.8571 5.14286 12.4738 5.14286 12C5.14286 11.5262 5.52621 11.1429 6 11.1429H14.2166L12.2511 9.17743C11.9162 8.8425 11.9162 8.30014 12.2511 7.96543C12.5861 7.63071 13.1284 7.6305 13.4631 7.96543L16.8917 11.394C17.2266 11.7287 17.2266 12.2713 16.8917 12.606ZM11.1429 22.2857H2.57143C2.0985 22.2857 1.71429 21.9015 1.71429 21.4286V2.57143C1.71429 2.0985 2.0985 1.71429 2.57143 1.71429H11.1429C11.6166 1.71429 12 1.33093 12 0.857143C12 0.383357 11.6166 0 11.1429 0H2.57143C1.1535 0 0 1.1535 0 2.57143V21.4286C0 22.8465 1.1535 24 2.57143 24H11.1429C11.6166 24 12 23.6166 12 23.1429C12 22.6691 11.6166 22.2857 11.1429 22.2857Z" fill="white"/>
</svg>
