<svg width="124" height="14" viewBox="0 0 124 14" fill="none" xmlns="http://www.w3.org/2000/svg">
<path d="M7.90723 1.04688V11H6.19141L1.72754 3.87012V11H0.0117188V1.04688H1.72754L6.20508 8.19043V1.04688H7.90723ZM9.47266 7.38379V7.22656C9.47266 6.69336 9.55013 6.19889 9.70508 5.74316C9.86003 5.28288 10.0833 4.88411 10.375 4.54688C10.6712 4.20508 11.0312 3.94076 11.4551 3.75391C11.8835 3.5625 12.3665 3.4668 12.9043 3.4668C13.4466 3.4668 13.9297 3.5625 14.3535 3.75391C14.7819 3.94076 15.1442 4.20508 15.4404 4.54688C15.7367 4.88411 15.9622 5.28288 16.1172 5.74316C16.2721 6.19889 16.3496 6.69336 16.3496 7.22656V7.38379C16.3496 7.91699 16.2721 8.41146 16.1172 8.86719C15.9622 9.32292 15.7367 9.72168 15.4404 10.0635C15.1442 10.4007 14.7842 10.665 14.3604 10.8564C13.9365 11.0433 13.4557 11.1367 12.918 11.1367C12.3757 11.1367 11.8903 11.0433 11.4619 10.8564C11.0381 10.665 10.6781 10.4007 10.3818 10.0635C10.0856 9.72168 9.86003 9.32292 9.70508 8.86719C9.55013 8.41146 9.47266 7.91699 9.47266 7.38379ZM11.1201 7.22656V7.38379C11.1201 7.71647 11.1543 8.03092 11.2227 8.32715C11.291 8.62337 11.3981 8.88314 11.5439 9.10645C11.6898 9.32975 11.8766 9.50521 12.1045 9.63281C12.3324 9.76042 12.6035 9.82422 12.918 9.82422C13.2233 9.82422 13.4876 9.76042 13.7109 9.63281C13.9388 9.50521 14.1257 9.32975 14.2715 9.10645C14.4173 8.88314 14.5244 8.62337 14.5928 8.32715C14.6657 8.03092 14.7021 7.71647 14.7021 7.38379V7.22656C14.7021 6.89844 14.6657 6.58854 14.5928 6.29688C14.5244 6.00065 14.415 5.73861 14.2646 5.51074C14.1188 5.28288 13.932 5.10514 13.7041 4.97754C13.4808 4.84538 13.2142 4.7793 12.9043 4.7793C12.5944 4.7793 12.3255 4.84538 12.0977 4.97754C11.8743 5.10514 11.6898 5.28288 11.5439 5.51074C11.3981 5.73861 11.291 6.00065 11.2227 6.29688C11.1543 6.58854 11.1201 6.89844 11.1201 7.22656ZM19.3643 5.18262V11H17.7168V3.60352H19.2686L19.3643 5.18262ZM19.0703 7.02832L18.5371 7.02148C18.5417 6.4974 18.6146 6.0166 18.7559 5.5791C18.9017 5.1416 19.1022 4.76562 19.3574 4.45117C19.6172 4.13672 19.9271 3.89518 20.2871 3.72656C20.6471 3.55339 21.0482 3.4668 21.4902 3.4668C21.8457 3.4668 22.167 3.51693 22.4541 3.61719C22.7458 3.71289 22.9941 3.87012 23.1992 4.08887C23.4089 4.30762 23.5684 4.59245 23.6777 4.94336C23.7871 5.28971 23.8418 5.71582 23.8418 6.22168V11H22.1875V6.21484C22.1875 5.85938 22.1351 5.5791 22.0303 5.37402C21.93 5.16439 21.7819 5.01628 21.5859 4.92969C21.3945 4.83854 21.1553 4.79297 20.8682 4.79297C20.5856 4.79297 20.3327 4.85221 20.1094 4.9707C19.8861 5.08919 19.6969 5.25098 19.542 5.45605C19.3916 5.66113 19.2754 5.89811 19.1934 6.16699C19.1113 6.43587 19.0703 6.72298 19.0703 7.02832ZM30.8896 1.04688V11H29.1738V1.04688H30.8896ZM34.9502 5.40137V6.76172H30.4521V5.40137H34.9502ZM35.5176 1.04688V2.41406H30.4521V1.04688H35.5176ZM39.8311 11.1367C39.2842 11.1367 38.7897 11.0479 38.3477 10.8701C37.9102 10.6878 37.5365 10.4349 37.2266 10.1113C36.9212 9.78776 36.6865 9.40723 36.5225 8.96973C36.3584 8.53223 36.2764 8.06055 36.2764 7.55469V7.28125C36.2764 6.70247 36.3607 6.17839 36.5293 5.70898C36.6979 5.23958 36.9326 4.83854 37.2334 4.50586C37.5342 4.16862 37.8896 3.91113 38.2998 3.7334C38.71 3.55566 39.1543 3.4668 39.6328 3.4668C40.1615 3.4668 40.624 3.55566 41.0205 3.7334C41.417 3.91113 41.7451 4.16178 42.0049 4.48535C42.2692 4.80436 42.4652 5.1849 42.5928 5.62695C42.7249 6.06901 42.791 6.55664 42.791 7.08984V7.79395H37.0762V6.61133H41.1641V6.48145C41.1549 6.18522 41.0957 5.90723 40.9863 5.64746C40.8815 5.3877 40.7197 5.17806 40.501 5.01855C40.2822 4.85905 39.9906 4.7793 39.626 4.7793C39.3525 4.7793 39.1087 4.83854 38.8945 4.95703C38.6849 5.07096 38.5094 5.2373 38.3682 5.45605C38.2269 5.6748 38.1175 5.93913 38.04 6.24902C37.9671 6.55436 37.9307 6.89844 37.9307 7.28125V7.55469C37.9307 7.87826 37.974 8.17904 38.0605 8.45703C38.1517 8.73047 38.2839 8.96973 38.457 9.1748C38.6302 9.37988 38.8398 9.54167 39.0859 9.66016C39.332 9.77409 39.6123 9.83105 39.9268 9.83105C40.3232 9.83105 40.6764 9.7513 40.9863 9.5918C41.2962 9.43229 41.5651 9.20671 41.793 8.91504L42.6611 9.75586C42.5016 9.98828 42.2943 10.2116 42.0391 10.4258C41.7839 10.6354 41.4717 10.8063 41.1025 10.9385C40.738 11.0706 40.3141 11.1367 39.8311 11.1367ZM47.3369 11.1367C46.79 11.1367 46.2956 11.0479 45.8535 10.8701C45.416 10.6878 45.0423 10.4349 44.7324 10.1113C44.4271 9.78776 44.1924 9.40723 44.0283 8.96973C43.8643 8.53223 43.7822 8.06055 43.7822 7.55469V7.28125C43.7822 6.70247 43.8665 6.17839 44.0352 5.70898C44.2038 5.23958 44.4385 4.83854 44.7393 4.50586C45.04 4.16862 45.3955 3.91113 45.8057 3.7334C46.2158 3.55566 46.6602 3.4668 47.1387 3.4668C47.6673 3.4668 48.1299 3.55566 48.5264 3.7334C48.9229 3.91113 49.251 4.16178 49.5107 4.48535C49.7751 4.80436 49.971 5.1849 50.0986 5.62695C50.2308 6.06901 50.2969 6.55664 50.2969 7.08984V7.79395H44.582V6.61133H48.6699V6.48145C48.6608 6.18522 48.6016 5.90723 48.4922 5.64746C48.3874 5.3877 48.2256 5.17806 48.0068 5.01855C47.7881 4.85905 47.4964 4.7793 47.1318 4.7793C46.8584 4.7793 46.6146 4.83854 46.4004 4.95703C46.1908 5.07096 46.0153 5.2373 45.874 5.45605C45.7327 5.6748 45.6234 5.93913 45.5459 6.24902C45.473 6.55436 45.4365 6.89844 45.4365 7.28125V7.55469C45.4365 7.87826 45.4798 8.17904 45.5664 8.45703C45.6576 8.73047 45.7897 8.96973 45.9629 9.1748C46.1361 9.37988 46.3457 9.54167 46.5918 9.66016C46.8379 9.77409 47.1182 9.83105 47.4326 9.83105C47.8291 9.83105 48.1823 9.7513 48.4922 9.5918C48.8021 9.43229 49.071 9.20671 49.2988 8.91504L50.167 9.75586C50.0075 9.98828 49.8001 10.2116 49.5449 10.4258C49.2897 10.6354 48.9775 10.8063 48.6084 10.9385C48.2438 11.0706 47.82 11.1367 47.3369 11.1367ZM59.0127 7.28809H56.4219V5.92773H59.0127C59.4639 5.92773 59.8285 5.85482 60.1064 5.70898C60.3844 5.56315 60.5872 5.36263 60.7148 5.10742C60.847 4.84766 60.9131 4.55143 60.9131 4.21875C60.9131 3.9043 60.847 3.61035 60.7148 3.33691C60.5872 3.05892 60.3844 2.83561 60.1064 2.66699C59.8285 2.49837 59.4639 2.41406 59.0127 2.41406H56.9482V11H55.2324V1.04688H59.0127C59.7829 1.04688 60.4368 1.18359 60.9746 1.45703C61.5169 1.72591 61.9294 2.09961 62.2119 2.57812C62.4945 3.05208 62.6357 3.5944 62.6357 4.20508C62.6357 4.84766 62.4945 5.39909 62.2119 5.85938C61.9294 6.31966 61.5169 6.67285 60.9746 6.91895C60.4368 7.16504 59.7829 7.28809 59.0127 7.28809ZM68.0977 9.5166V5.98926C68.0977 5.72493 68.0498 5.49707 67.9541 5.30566C67.8584 5.11426 67.7126 4.96615 67.5166 4.86133C67.3252 4.75651 67.0837 4.7041 66.792 4.7041C66.5231 4.7041 66.2907 4.74967 66.0947 4.84082C65.8988 4.93197 65.7461 5.05501 65.6367 5.20996C65.5273 5.36491 65.4727 5.54036 65.4727 5.73633H63.832C63.832 5.44466 63.9027 5.16211 64.0439 4.88867C64.1852 4.61523 64.3903 4.37142 64.6592 4.15723C64.9281 3.94303 65.2493 3.77441 65.623 3.65137C65.9967 3.52832 66.416 3.4668 66.8809 3.4668C67.4368 3.4668 67.929 3.56022 68.3574 3.74707C68.7904 3.93392 69.1299 4.21647 69.376 4.59473C69.6266 4.96842 69.752 5.43783 69.752 6.00293V9.29102C69.752 9.62826 69.7747 9.93132 69.8203 10.2002C69.8704 10.4645 69.9411 10.6947 70.0322 10.8906V11H68.3438C68.2663 10.8223 68.2048 10.5967 68.1592 10.3232C68.1182 10.0452 68.0977 9.77637 68.0977 9.5166ZM68.3369 6.50195L68.3506 7.52051H67.168C66.8626 7.52051 66.5938 7.55013 66.3613 7.60938C66.1289 7.66406 65.9352 7.74609 65.7803 7.85547C65.6253 7.96484 65.5091 8.09701 65.4316 8.25195C65.3542 8.4069 65.3154 8.58236 65.3154 8.77832C65.3154 8.97428 65.361 9.1543 65.4521 9.31836C65.5433 9.47786 65.6755 9.60319 65.8486 9.69434C66.0264 9.78548 66.2406 9.83105 66.4912 9.83105C66.8285 9.83105 67.1224 9.7627 67.373 9.62598C67.6283 9.4847 67.8288 9.3138 67.9746 9.11328C68.1204 8.9082 68.1979 8.71452 68.207 8.53223L68.7402 9.26367C68.6855 9.45052 68.5921 9.65104 68.46 9.86523C68.3278 10.0794 68.1546 10.2845 67.9404 10.4805C67.7308 10.6719 67.4779 10.8291 67.1816 10.9521C66.89 11.0752 66.5527 11.1367 66.1699 11.1367C65.6868 11.1367 65.2562 11.041 64.8779 10.8496C64.4997 10.6536 64.2035 10.3916 63.9893 10.0635C63.7751 9.73079 63.668 9.35482 63.668 8.93555C63.668 8.54362 63.7409 8.19727 63.8867 7.89648C64.0371 7.59115 64.2559 7.33594 64.543 7.13086C64.8346 6.92578 65.1901 6.77083 65.6094 6.66602C66.0286 6.55664 66.5072 6.50195 67.0449 6.50195H68.3369ZM73.5117 10.1934L75.5215 3.60352H77.2852L74.3184 12.1279C74.25 12.3102 74.1611 12.5085 74.0518 12.7227C73.9424 12.9368 73.7988 13.1396 73.6211 13.3311C73.4479 13.527 73.2314 13.6842 72.9717 13.8027C72.7119 13.9258 72.3975 13.9873 72.0283 13.9873C71.8825 13.9873 71.7412 13.9736 71.6045 13.9463C71.4723 13.9235 71.347 13.8984 71.2285 13.8711L71.2217 12.6133C71.2673 12.6178 71.3219 12.6224 71.3857 12.627C71.4541 12.6315 71.5088 12.6338 71.5498 12.6338C71.8232 12.6338 72.0511 12.5996 72.2334 12.5312C72.4157 12.4674 72.5638 12.3626 72.6777 12.2168C72.7962 12.071 72.8965 11.875 72.9785 11.6289L73.5117 10.1934ZM72.377 3.60352L74.1338 9.14062L74.4277 10.877L73.2861 11.1709L70.5996 3.60352H72.377ZM79.9922 3.60352V11H78.3379V3.60352H79.9922ZM78.2285 1.66211C78.2285 1.41146 78.3105 1.2041 78.4746 1.04004C78.6432 0.871419 78.8757 0.787109 79.1719 0.787109C79.4635 0.787109 79.6937 0.871419 79.8623 1.04004C80.0309 1.2041 80.1152 1.41146 80.1152 1.66211C80.1152 1.9082 80.0309 2.11328 79.8623 2.27734C79.6937 2.44141 79.4635 2.52344 79.1719 2.52344C78.8757 2.52344 78.6432 2.44141 78.4746 2.27734C78.3105 2.11328 78.2285 1.9082 78.2285 1.66211ZM83.4307 5.18262V11H81.7832V3.60352H83.335L83.4307 5.18262ZM83.1367 7.02832L82.6035 7.02148C82.6081 6.4974 82.681 6.0166 82.8223 5.5791C82.9681 5.1416 83.1686 4.76562 83.4238 4.45117C83.6836 4.13672 83.9935 3.89518 84.3535 3.72656C84.7135 3.55339 85.1146 3.4668 85.5566 3.4668C85.9121 3.4668 86.2334 3.51693 86.5205 3.61719C86.8122 3.71289 87.0605 3.87012 87.2656 4.08887C87.4753 4.30762 87.6348 4.59245 87.7441 4.94336C87.8535 5.28971 87.9082 5.71582 87.9082 6.22168V11H86.2539V6.21484C86.2539 5.85938 86.2015 5.5791 86.0967 5.37402C85.9964 5.16439 85.8483 5.01628 85.6523 4.92969C85.4609 4.83854 85.2217 4.79297 84.9346 4.79297C84.652 4.79297 84.3991 4.85221 84.1758 4.9707C83.9525 5.08919 83.7633 5.25098 83.6084 5.45605C83.458 5.66113 83.3418 5.89811 83.2598 6.16699C83.1777 6.43587 83.1367 6.72298 83.1367 7.02832ZM94.3271 3.60352H95.8242V10.7949C95.8242 11.4603 95.6829 12.0254 95.4004 12.4902C95.1178 12.9551 94.7236 13.3083 94.2178 13.5498C93.7119 13.7959 93.1263 13.9189 92.4609 13.9189C92.1784 13.9189 91.8639 13.8779 91.5176 13.7959C91.1758 13.7139 90.8431 13.5817 90.5195 13.3994C90.2005 13.2217 89.9339 12.987 89.7197 12.6953L90.4922 11.7246C90.7565 12.0391 91.0482 12.2692 91.3672 12.415C91.6862 12.5609 92.0212 12.6338 92.3721 12.6338C92.7503 12.6338 93.0716 12.5632 93.3359 12.4219C93.6048 12.2852 93.8122 12.0824 93.958 11.8135C94.1038 11.5446 94.1768 11.2165 94.1768 10.8291V5.27832L94.3271 3.60352ZM89.3027 7.38379V7.24023C89.3027 6.67969 89.3711 6.16927 89.5078 5.70898C89.6445 5.24414 89.8405 4.84538 90.0957 4.5127C90.3509 4.17546 90.6608 3.91797 91.0254 3.74023C91.39 3.55794 91.8024 3.4668 92.2627 3.4668C92.7412 3.4668 93.1491 3.55339 93.4863 3.72656C93.8281 3.89974 94.113 4.14811 94.3408 4.47168C94.5687 4.79069 94.7464 5.1735 94.874 5.62012C95.0062 6.06217 95.1042 6.55436 95.168 7.09668V7.55469C95.1087 8.08333 95.0085 8.56641 94.8672 9.00391C94.7259 9.44141 94.5391 9.81966 94.3066 10.1387C94.0742 10.4577 93.7871 10.7038 93.4453 10.877C93.1081 11.0501 92.7093 11.1367 92.249 11.1367C91.7979 11.1367 91.39 11.0433 91.0254 10.8564C90.6654 10.6696 90.3555 10.4076 90.0957 10.0703C89.8405 9.73307 89.6445 9.33659 89.5078 8.88086C89.3711 8.42057 89.3027 7.92155 89.3027 7.38379ZM90.9502 7.24023V7.38379C90.9502 7.72103 90.9821 8.03548 91.0459 8.32715C91.1143 8.61882 91.2168 8.8763 91.3535 9.09961C91.4948 9.31836 91.6725 9.49154 91.8867 9.61914C92.1055 9.74219 92.363 9.80371 92.6592 9.80371C93.0465 9.80371 93.3633 9.72168 93.6094 9.55762C93.86 9.39355 94.0514 9.17253 94.1836 8.89453C94.3203 8.61198 94.416 8.29753 94.4707 7.95117V6.71387C94.4434 6.44499 94.3864 6.19434 94.2998 5.96191C94.2178 5.72949 94.1061 5.52669 93.9648 5.35352C93.8236 5.17578 93.6458 5.03906 93.4316 4.94336C93.2174 4.8431 92.9645 4.79297 92.6729 4.79297C92.3766 4.79297 92.1191 4.85677 91.9004 4.98438C91.6816 5.11198 91.5016 5.28743 91.3604 5.51074C91.2236 5.73405 91.1211 5.99382 91.0527 6.29004C90.9844 6.58626 90.9502 6.90299 90.9502 7.24023ZM107.418 9.63965V11H102.421V9.63965H107.418ZM102.899 1.04688V11H101.184V1.04688H102.899ZM112.524 7.28809H109.934V5.92773H112.524C112.976 5.92773 113.34 5.85482 113.618 5.70898C113.896 5.56315 114.099 5.36263 114.227 5.10742C114.359 4.84766 114.425 4.55143 114.425 4.21875C114.425 3.9043 114.359 3.61035 114.227 3.33691C114.099 3.05892 113.896 2.83561 113.618 2.66699C113.34 2.49837 112.976 2.41406 112.524 2.41406H110.46V11H108.744V1.04688H112.524C113.295 1.04688 113.949 1.18359 114.486 1.45703C115.029 1.72591 115.441 2.09961 115.724 2.57812C116.006 3.05208 116.147 3.5944 116.147 4.20508C116.147 4.84766 116.006 5.39909 115.724 5.85938C115.441 6.31966 115.029 6.67285 114.486 6.91895C113.949 7.16504 113.295 7.28809 112.524 7.28809ZM121.671 8.99707C121.671 8.83301 121.63 8.6849 121.548 8.55273C121.466 8.41602 121.309 8.29297 121.076 8.18359C120.848 8.07422 120.511 7.97396 120.064 7.88281C119.673 7.79622 119.312 7.69368 118.984 7.5752C118.661 7.45215 118.383 7.30404 118.15 7.13086C117.918 6.95768 117.738 6.7526 117.61 6.51562C117.483 6.27865 117.419 6.00521 117.419 5.69531C117.419 5.39453 117.485 5.1097 117.617 4.84082C117.749 4.57194 117.938 4.33496 118.185 4.12988C118.431 3.9248 118.729 3.76302 119.08 3.64453C119.436 3.52604 119.832 3.4668 120.27 3.4668C120.889 3.4668 121.42 3.57161 121.862 3.78125C122.309 3.98633 122.651 4.2666 122.888 4.62207C123.125 4.97298 123.243 5.36947 123.243 5.81152H121.596C121.596 5.61556 121.546 5.43327 121.445 5.26465C121.35 5.09147 121.204 4.95247 121.008 4.84766C120.812 4.73828 120.566 4.68359 120.27 4.68359C119.987 4.68359 119.752 4.72917 119.565 4.82031C119.383 4.9069 119.246 5.02083 119.155 5.16211C119.069 5.30339 119.025 5.45833 119.025 5.62695C119.025 5.75 119.048 5.86165 119.094 5.96191C119.144 6.05762 119.226 6.14648 119.34 6.22852C119.454 6.30599 119.609 6.37891 119.805 6.44727C120.005 6.51562 120.256 6.58171 120.557 6.64551C121.122 6.764 121.607 6.91667 122.013 7.10352C122.423 7.28581 122.737 7.52279 122.956 7.81445C123.175 8.10156 123.284 8.46615 123.284 8.9082C123.284 9.23633 123.214 9.53711 123.072 9.81055C122.936 10.0794 122.735 10.3141 122.471 10.5146C122.206 10.7106 121.89 10.8633 121.521 10.9727C121.156 11.082 120.746 11.1367 120.29 11.1367C119.62 11.1367 119.053 11.0182 118.588 10.7812C118.123 10.5397 117.77 10.2321 117.528 9.8584C117.291 9.48014 117.173 9.08822 117.173 8.68262H118.766C118.784 8.98796 118.868 9.23177 119.019 9.41406C119.174 9.5918 119.365 9.72168 119.593 9.80371C119.825 9.88118 120.064 9.91992 120.311 9.91992C120.607 9.91992 120.855 9.88118 121.056 9.80371C121.256 9.72168 121.409 9.6123 121.514 9.47559C121.618 9.33431 121.671 9.1748 121.671 8.99707Z" fill="#191919"/>
</svg>
