<svg width="24" height="24" viewBox="0 0 24 24" fill="none" xmlns="http://www.w3.org/2000/svg">
<path d="M14.7421 12.095L14.7417 12.0954L11.4639 15.3783L9.76015 13.6888C9.63807 13.5677 9.46897 13.5104 9.30469 13.5104C9.1404 13.5104 8.97131 13.5677 8.84923 13.6888C8.60889 13.9271 8.60889 14.3561 8.84923 14.5944L10.9921 16.7194C11.1142 16.8405 11.2833 16.8979 11.4475 16.8979C11.6118 16.8979 11.7809 16.8405 11.903 16.7194L15.653 13.0007C15.8933 12.7624 15.8933 12.3333 15.653 12.095C15.5309 11.9739 15.3618 11.9166 15.1975 11.9166C15.0333 11.9166 14.8642 11.9739 14.7421 12.095ZM15.1143 5.525H8.88571V4.03125C8.88571 3.86562 8.80323 3.70857 8.68872 3.59501C8.57415 3.4814 8.41616 3.4 8.25 3.4C7.89024 3.4 7.61429 3.71365 7.61429 4.03125V5.525H6.64286C5.38204 5.525 4.4 6.53289 4.4 7.75V18.375C4.4 19.6263 5.38306 20.6 6.64286 20.6H17.3571C18.5824 20.6 19.6 19.6273 19.6 18.375V7.75C19.6 6.53187 18.5835 5.525 17.3571 5.525H16.3857V4.03125C16.3857 3.86562 16.3032 3.70857 16.1887 3.59501C16.0742 3.4814 15.9162 3.4 15.75 3.4C15.3902 3.4 15.1143 3.71365 15.1143 4.03125V5.525ZM6.64286 19.3375C6.09462 19.3375 5.67143 18.9166 5.67143 18.375V9.975H18.3286V18.375C18.3286 18.9146 17.8739 19.3375 17.3571 19.3375H6.64286ZM5.67143 8.7125V7.75C5.67143 7.23953 6.09664 6.7875 6.64286 6.7875H17.3571C17.8719 6.7875 18.3286 7.24156 18.3286 7.75V8.7125H5.67143Z" fill="white" stroke="white" stroke-width="0.2"/>
</svg>
