<svg width="15" height="13" viewBox="0 0 15 13" fill="none" xmlns="http://www.w3.org/2000/svg">
<path d="M4.21875 3.87891L6.84375 6.28516C6.98047 6.39453 7.0625 6.58594 7.0625 6.75C7.0625 6.94141 6.98047 7.13281 6.84375 7.24219L4.21875 9.64844C3.94531 9.89453 3.53516 9.86719 3.28906 9.62109C3.04297 9.34766 3.07031 8.9375 3.31641 8.69141L5.42188 6.75L3.31641 4.83594C3.07031 4.58984 3.04297 4.17969 3.28906 3.90625C3.53516 3.63281 3.94531 3.63281 4.21875 3.87891ZM11.2188 8.9375C11.5742 8.9375 11.875 9.23828 11.875 9.59375C11.875 9.97656 11.5742 10.25 11.2188 10.25H7.28125C6.89844 10.25 6.625 9.97656 6.625 9.59375C6.625 9.23828 6.89844 8.9375 7.28125 8.9375H11.2188ZM12.75 0.625C13.707 0.625 14.5 1.41797 14.5 2.375V11.125C14.5 12.1094 13.707 12.875 12.75 12.875H2.25C1.26562 12.875 0.5 12.1094 0.5 11.125V2.375C0.5 1.41797 1.26562 0.625 2.25 0.625H12.75ZM12.75 1.9375H2.25C2.00391 1.9375 1.8125 2.15625 1.8125 2.375V11.125C1.8125 11.3711 2.00391 11.5625 2.25 11.5625H12.75C12.9688 11.5625 13.1875 11.3711 13.1875 11.125V2.375C13.1875 2.15625 12.9688 1.9375 12.75 1.9375Z" fill="#5D6E82"/>
</svg>
