<svg width="21" height="20" viewBox="0 0 21 20" fill="none" xmlns="http://www.w3.org/2000/svg">
<path d="M18.6211 11.4785C18.0879 11.3145 17.5547 11.6016 17.3906 12.1348C16.5293 15.2109 13.6582 17.3438 10.459 17.3438C7.71094 17.3438 5.25 15.7852 4.01953 13.4062H8.16211C8.69531 13.4062 9.14648 12.9961 9.14648 12.4219C9.14648 11.8887 8.73633 11.4375 8.16211 11.4375H1.59961C1.06641 11.4375 0.615234 11.8887 0.615234 12.4219V18.9844C0.615234 19.5586 1.06641 19.9688 1.59961 19.9688C2.17383 19.9688 2.58398 19.5586 2.58398 18.9844V14.8008C4.22461 17.5488 7.21875 19.3125 10.459 19.3125C14.5195 19.3125 18.1289 16.6055 19.2773 12.709C19.4414 12.1758 19.1543 11.6426 18.6211 11.4785ZM19.3594 0.28125C18.7852 0.28125 18.375 0.732422 18.375 1.26562V5.49023C16.7344 2.74219 13.7402 0.9375 10.5 0.9375C6.43945 0.9375 2.78906 3.68555 1.64062 7.58203C1.51758 8.07422 1.80469 8.64844 2.33789 8.77148C2.87109 8.93555 3.4043 8.64844 3.52734 8.11523C4.42969 5.08008 7.30078 2.90625 10.5 2.90625C13.207 2.90625 15.668 4.50586 16.8984 6.84375H12.7969C12.2227 6.84375 11.8125 7.29492 11.8125 7.82812C11.8125 8.40234 12.2227 8.8125 12.7969 8.8125H19.3594C19.8926 8.8125 20.3438 8.40234 20.3438 7.82812V1.26562C20.3438 0.732422 19.8926 0.28125 19.3594 0.28125Z" fill="#64b54d"/>
</svg>
