<svg width="21" height="20" viewBox="0 0 21 20" fill="none" xmlns="http://www.w3.org/2000/svg">
<path d="M18.6211 11.4785C18.0879 11.3144 17.5547 11.6015 17.3906 12.1347C16.5293 15.2109 13.6582 17.3437 10.459 17.3437C7.71094 17.3437 5.25 15.7851 4.01953 13.4062H8.16211C8.69531 13.4062 9.14648 12.996 9.14648 12.4218C9.14648 11.8886 8.73633 11.4374 8.16211 11.4374H1.59961C1.06641 11.4374 0.615234 11.8886 0.615234 12.4218V18.9843C0.615234 19.5585 1.06641 19.9687 1.59961 19.9687C2.17383 19.9687 2.58398 19.5585 2.58398 18.9843V14.8007C4.22461 17.5488 7.21875 19.3124 10.459 19.3124C14.5195 19.3124 18.1289 16.6054 19.2773 12.7089C19.4414 12.1757 19.1543 11.6425 18.6211 11.4785ZM19.3594 0.281189C18.7852 0.281189 18.375 0.732361 18.375 1.26556V5.49017C16.7344 2.74213 13.7402 0.937439 10.5 0.937439C6.43945 0.937439 2.78906 3.68549 1.64062 7.58197C1.51758 8.07416 1.80469 8.64838 2.33789 8.77142C2.87109 8.93549 3.4043 8.64838 3.52734 8.11517C4.42969 5.08002 7.30078 2.90619 10.5 2.90619C13.207 2.90619 15.668 4.5058 16.8984 6.84369H12.7969C12.2227 6.84369 11.8125 7.29486 11.8125 7.82806C11.8125 8.40228 12.2227 8.81244 12.7969 8.81244H19.3594C19.8926 8.81244 20.3438 8.40228 20.3438 7.82806V1.26556C20.3438 0.732361 19.8926 0.281189 19.3594 0.281189Z" fill="#64b54d"/>
</svg>
