<svg width="15" height="18" viewBox="0 0 15 18" fill="none" xmlns="http://www.w3.org/2000/svg">
	<path classname="svg-icon" d="M14.1187 3.12109L11.6284 0.630859C11.23 0.232422 10.6987 0 10.1343 0H2.12451C0.929199 0 -0.000488281 0.962891 -0.000488281 2.125V15.875C-0.000488281 17.0703 0.929199 18 2.12451 18H12.6245C13.7866 18 14.7495 17.0703 14.7495 15.875V4.61523C14.7495 4.05078 14.5171 3.51953 14.1187 3.12109ZM13.1558 15.875C13.1558 16.1738 12.8901 16.4062 12.6245 16.4062H2.12451C1.82568 16.4062 1.59326 16.1738 1.59326 15.875V2.1582C1.59326 1.85938 1.82568 1.62695 2.12451 1.62695H9.43701V4.25C9.43701 4.84766 9.90186 5.3125 10.4995 5.3125H13.1226V15.875H13.1558Z" fill="white"/>
	<path classname="svg-icon" d="M6.45264 8.90625C6.45264 8.47461 6.78467 8.10938 7.24951 8.10938C7.68115 8.10938 8.04639 8.47461 8.04639 8.90625V13.1562C8.04639 13.6211 7.68115 13.9531 7.24951 13.9531C6.78467 13.9531 6.45264 13.6211 6.45264 13.1562L6.45264 8.90625Z" fill="white"/>
	<path classname="svg-icon" d="M10.6401 13.9531C10.1753 13.9531 9.84326 13.6211 9.84326 13.1562V9.70312C9.84326 9.27148 10.1753 8.90625 10.6401 8.90625C11.0718 8.90625 11.437 9.27148 11.437 9.70312V13.1562C11.437 13.6211 11.0718 13.9531 10.6401 13.9531Z" fill="white"/>
	<path classname="svg-icon" d="M2.99951 11.0312C2.99951 10.5996 3.33154 10.2344 3.79639 10.2344C4.22803 10.2344 4.59326 10.5996 4.59326 11.0312L4.59326 13.1562C4.59326 13.6211 4.22803 13.9531 3.79639 13.9531C3.33154 13.9531 2.99951 13.6211 2.99951 13.1562L2.99951 11.0312Z" fill="white"/>
</svg>