<svg width="15" height="15" viewBox="0 0 15 15" fill="none" xmlns="http://www.w3.org/2000/svg">
<path d="M14.2812 13.629L10.6172 9.96497C11.4102 9.00793 11.8477 7.77747 11.8477 6.43762C11.8477 3.32043 9.27734 0.750122 6.16016 0.750122C3.01562 0.750122 0.5 3.32043 0.5 6.43762C0.5 9.58215 3.04297 12.1251 6.16016 12.1251C7.47266 12.1251 8.70312 11.6876 9.6875 10.8947L13.3516 14.5587C13.4883 14.6954 13.6523 14.7501 13.8438 14.7501C14.0078 14.7501 14.1719 14.6954 14.2812 14.5587C14.5547 14.3126 14.5547 13.9025 14.2812 13.629ZM1.8125 6.43762C1.8125 4.03137 3.75391 2.06262 6.1875 2.06262C8.59375 2.06262 10.5625 4.03137 10.5625 6.43762C10.5625 8.87122 8.59375 10.8126 6.1875 10.8126C3.75391 10.8126 1.8125 8.87122 1.8125 6.43762Z" fill="#191919"/>
</svg>
