<svg width="40" height="40" viewBox="0 0 40 40" fill="none" xmlns="http://www.w3.org/2000/svg">
<path d="M40 20C40 31.0938 31.0156 40 20 40C8.90625 40 0 31.0938 0 20C0 8.98438 8.90625 0 20 0C31.0156 0 40 8.98438 40 20ZM20 3.75C11.0156 3.75 3.75 11.0938 3.75 20C3.75 28.9844 11.0156 36.25 20 36.25C28.9062 36.25 36.25 28.9844 36.25 20C36.25 11.0938 28.9062 3.75 20 3.75Z" fill="#1978A2"/>
<path d="M28.7095 18.9484L22.513 24.34C21.9848 24.8042 21.1399 24.4114 21.1399 23.6973V20.5909C15.6474 20.6623 13.3237 22.0191 14.9081 27.1965C15.0841 27.7678 14.38 28.232 13.9222 27.8749C12.3731 26.7323 11 24.5543 11 22.3762C11 16.9488 15.4714 15.7705 21.1399 15.6991V12.8783C21.1399 12.1285 21.9848 11.7357 22.513 12.1999L28.7095 17.5915C29.0968 17.9843 29.0968 18.5913 28.7095 18.9484Z" fill="#1978A2"/>
</svg>
