<svg width="18" height="17" viewBox="0 0 18 17" fill="none" xmlns="http://www.w3.org/2000/svg">
<path d="M17.75 4.96875L13.25 0.75C12.9375 0.46875 12.4688 0.46875 12.1875 0.78125C11.9062 1.09375 11.9062 1.5625 12.2188 1.84375L15.3438 4.78125H10.25C8.96875 4.71875 7.78125 5.21875 6.90625 6.125C6 7.03125 5.5 8.21875 5.5 9.5V12.25C5.5 12.6562 5.8125 12.9688 6.25 12.9688C6.65625 12.9688 7 12.6875 7 12.25V9.5C7 8.625 7.3125 7.8125 7.9375 7.1875C8.5625 6.59375 9.3125 6.21875 10.25 6.25H15.3438L12.2188 9.21875C11.9062 9.5 11.9062 9.96875 12.1875 10.2812C12.3438 10.4062 12.5312 10.5312 12.7188 10.5312C12.9062 10.5312 13.0938 10.4375 13.25 10.3125L17.75 6.09375C17.9062 5.90625 18 5.71875 18 5.5C18 5.3125 17.9062 5.125 17.75 4.96875ZM11.25 12.5C10.8125 12.5 10.5 12.8438 10.5 13.25V14.7188C10.5 14.8438 10.375 14.9375 10.25 14.9375H1.75C1.59375 14.9375 1.5 14.8125 1.5 14.7188V6.25C1.5 6.125 1.59375 6.03125 1.75 6.03125H3.5C3.90625 6.03125 4.25 5.71875 4.25 5.3125C4.25 4.9375 3.90625 4.59375 3.5 4.59375H1.75C0.78125 4.59375 0 5.375 0 6.3125V14.7812C0 15.7188 0.78125 16.5 1.75 16.5H10.25C11.1875 16.5 12 15.7188 12 14.7812V13.3125C12 12.8438 11.6562 12.5 11.25 12.5Z" fill="#6B7280"/>
</svg>
