<svg width="18" height="19" viewBox="0 0 18 19" fill="none" xmlns="http://www.w3.org/2000/svg">
<path d="M5 7C4.29688 7 3.75 6.45312 3.75 5.75C3.75 5.08594 4.29688 4.5 5 4.5C5.66406 4.5 6.25 5.08594 6.25 5.75C6.25 6.45312 5.66406 7 5 7ZM7.8125 5.75C7.8125 5.24219 8.20312 4.8125 8.75 4.8125H12.5C13.0078 4.8125 13.4375 5.24219 13.4375 5.75C13.4375 6.29688 13.0078 6.6875 12.5 6.6875H8.75C8.20312 6.6875 7.8125 6.29688 7.8125 5.75ZM7.8125 9.5C7.8125 8.99219 8.20312 8.5625 8.75 8.5625H12.5C13.0078 8.5625 13.4375 8.99219 13.4375 9.5C13.4375 10.0469 13.0078 10.4375 12.5 10.4375H8.75C8.20312 10.4375 7.8125 10.0469 7.8125 9.5ZM7.8125 13.25C7.8125 12.7422 8.20312 12.3125 8.75 12.3125H12.5C13.0078 12.3125 13.4375 12.7422 13.4375 13.25C13.4375 13.7969 13.0078 14.1875 12.5 14.1875H8.75C8.20312 14.1875 7.8125 13.7969 7.8125 13.25ZM5 8.25C5.66406 8.25 6.25 8.83594 6.25 9.5C6.25 10.2031 5.66406 10.75 5 10.75C4.29688 10.75 3.75 10.2031 3.75 9.5C3.75 8.83594 4.29688 8.25 5 8.25ZM5 14.5C4.29688 14.5 3.75 13.9531 3.75 13.25C3.75 12.5859 4.29688 12 5 12C5.66406 12 6.25 12.5859 6.25 13.25C6.25 13.9531 5.66406 14.5 5 14.5ZM0 3.25C0 1.88281 1.09375 0.75 2.5 0.75H15C16.3672 0.75 17.5 1.88281 17.5 3.25V15.75C17.5 17.1562 16.3672 18.25 15 18.25H2.5C1.09375 18.25 0 17.1562 0 15.75V3.25ZM1.875 3.25V15.75C1.875 16.1016 2.14844 16.375 2.5 16.375H15C15.3125 16.375 15.625 16.1016 15.625 15.75V3.25C15.625 2.9375 15.3125 2.625 15 2.625H2.5C2.14844 2.625 1.875 2.9375 1.875 3.25Z" fill="#64b54d"/>
</svg>
