<?xml version="1.0" encoding="UTF-8"?>
<svg id="Layer_1" data-name="Layer 1" xmlns="http://www.w3.org/2000/svg" viewBox="0 0 595.28 156.92">
  <defs>
    <style>
      .cls-1 {
        fill: #61b846;
      }

      .cls-1, .cls-2 {
        stroke-width: 0px;
      }

      .cls-2 {
        fill: #231f20;
      }
    </style>
  </defs>
  <polygon class="cls-2" points="35.71 59.17 22.79 59.17 22.79 50.33 58.62 50.33 58.62 59.17 45.7 59.17 45.7 95.64 35.71 95.64 35.71 59.17"/>
  <polygon class="cls-2" points="65.96 50.33 75.94 50.33 75.94 67.23 95.33 67.23 95.33 50.33 105.31 50.33 105.31 95.64 95.33 95.64 95.33 76.06 75.94 76.06 75.94 95.64 65.96 95.64 65.96 50.33"/>
  <path class="cls-2" d="M206.54,78.17c0,10.69-6.53,18.62-19.07,18.62s-19.13-7.94-19.13-18.62v-27.83h9.98v27.45c0,5.56,3.84,9.79,9.15,9.79s9.09-4.22,9.09-9.79v-27.45h9.98v27.83Z"/>
  <polygon class="cls-2" points="267.08 50.33 277.07 50.33 277.07 67.23 296.46 67.23 296.46 50.33 306.44 50.33 306.44 95.64 296.46 95.64 296.46 76.06 277.07 76.06 277.07 95.64 267.08 95.64 267.08 50.33"/>
  <polygon class="cls-2" points="326.7 59.17 313.78 59.17 313.78 50.33 349.61 50.33 349.61 59.17 336.69 59.17 336.69 95.64 326.7 95.64 326.7 59.17"/>
  <polygon class="cls-2" points="356.81 50.33 387.21 50.33 387.21 59.55 366.8 59.55 366.8 68.76 385.67 68.76 385.67 77.98 366.8 77.98 366.8 95.64 356.81 95.64 356.81 50.33"/>
  <path class="cls-2" d="M534.83,78.17c0,10.69-6.53,18.62-19.07,18.62s-19.13-7.94-19.13-18.62v-27.83h9.98v27.45c0,5.56,3.84,9.79,9.15,9.79s9.09-4.22,9.09-9.79v-27.45h9.98v27.83Z"/>
  <path class="cls-2" d="M565.58,61.41c-1.6-2.05-4.8-3.01-7.23-3.01-2.81,0-6.72,1.28-6.72,4.67,0,8.25,20.86,2.94,20.86,18.82,0,10.11-8.13,14.91-17.47,14.91-5.82,0-10.94-1.73-15.23-5.7l7.11-7.81c2.05,2.69,5.37,4.29,8.7,4.29s6.91-1.54,6.91-4.74c0-8.32-21.24-3.84-21.24-18.95,0-9.66,8.38-14.71,17.28-14.71,5.12,0,10.05,1.35,13.89,4.74l-6.85,7.49Z"/>
  <path class="cls-2" d="M136.82,87.02c-7.69,0-13.92-6.23-13.92-13.92s6.23-13.92,13.92-13.92,13.92,6.23,13.92,13.92-6.23,13.92-13.92,13.92M136.82,49.41c-13.08,0-23.69,10.61-23.69,23.69s10.61,23.69,23.69,23.69,23.69-10.61,23.69-23.69-10.61-23.69-23.69-23.69"/>
  <path class="cls-1" d="M417.27,87.02c-7.69,0-13.92-6.23-13.92-13.92s6.23-13.92,13.92-13.92,13.92,6.23,13.92,13.92-6.23,13.92-13.92,13.92M417.27,49.41c-13.08,0-23.69,10.61-23.69,23.69s10.61,23.69,23.69,23.69,23.69-10.61,23.69-23.69-10.61-23.69-23.69-23.69"/>
  <path class="cls-1" d="M443.11,101.41c0-3.49-2.83-6.32-6.32-6.32s-6.32,2.83-6.32,6.32,2.83,6.32,6.32,6.32,6.32-2.83,6.32-6.32"/>
  <path class="cls-2" d="M238.87,49.41c7.02,0,13.18,2.75,17.71,7.41l-6.82,5.97c-2.75-2.76-6.69-4.2-10.89-4.2-8.13,0-14.49,6.17-14.49,14.43s6.36,14.36,14.49,14.36c3.94,0,7.41-1.24,9.97-3.54v-6.17h-12v-8.92h21.45v18.49c-4.2,5.58-11.28,9.31-19.41,9.31-13.58,0-24.59-9.9-24.59-23.55s11.02-23.61,24.59-23.61"/>
  <path class="cls-2" d="M471.41,49.41c7.45,0,14.04,3.29,18.58,8.57l-6.92,5.86c-2.9-3.23-7.05-5.21-11.66-5.21-8.17,0-14.56,6.2-14.56,14.5s6.39,14.43,14.56,14.43c4.61,0,8.83-1.98,11.73-5.27l6.92,5.87c-4.55,5.34-11.2,8.63-18.65,8.63-13.64,0-24.71-9.95-24.71-23.66s11.07-23.72,24.71-23.72"/>
</svg>