<svg width="14" height="4" viewBox="0 0 14 4" fill="none" xmlns="http://www.w3.org/2000/svg">
<path d="M0.943359 2.00977V1.74316C0.943359 1.31478 1.0778 0.963867 1.34668 0.69043C1.62012 0.416992 1.98926 0.280273 2.4541 0.280273C2.9235 0.280273 3.29492 0.416992 3.56836 0.69043C3.8418 0.963867 3.97852 1.31478 3.97852 1.74316V2.00977C3.97852 2.43359 3.8418 2.78223 3.56836 3.05566C3.29948 3.32454 2.93034 3.45898 2.46094 3.45898C1.99609 3.45898 1.62695 3.32454 1.35352 3.05566C1.08008 2.78223 0.943359 2.43359 0.943359 2.00977ZM5.83789 2.00977V1.74316C5.83789 1.31478 5.97233 0.963867 6.24121 0.69043C6.51465 0.416992 6.88379 0.280273 7.34863 0.280273C7.81803 0.280273 8.18945 0.416992 8.46289 0.69043C8.73633 0.963867 8.87305 1.31478 8.87305 1.74316V2.00977C8.87305 2.43359 8.73633 2.78223 8.46289 3.05566C8.19401 3.32454 7.82487 3.45898 7.35547 3.45898C6.89062 3.45898 6.52148 3.32454 6.24805 3.05566C5.97461 2.78223 5.83789 2.43359 5.83789 2.00977ZM10.7324 2.00977V1.74316C10.7324 1.31478 10.8669 0.963867 11.1357 0.69043C11.4092 0.416992 11.7783 0.280273 12.2432 0.280273C12.7126 0.280273 13.084 0.416992 13.3574 0.69043C13.6309 0.963867 13.7676 1.31478 13.7676 1.74316V2.00977C13.7676 2.43359 13.6309 2.78223 13.3574 3.05566C13.0885 3.32454 12.7194 3.45898 12.25 3.45898C11.7852 3.45898 11.416 3.32454 11.1426 3.05566C10.8691 2.78223 10.7324 2.43359 10.7324 2.00977Z" fill="#717F8C"/>
</svg>
