<svg width="23" height="19" viewBox="0 0 23 19" fill="none" xmlns="http://www.w3.org/2000/svg">
<path d="M7.875 9.25C10.3359 9.25 12.375 7.24609 12.375 4.75C12.375 2.28906 10.3359 0.25 7.875 0.25C5.37891 0.25 3.375 2.28906 3.375 4.75C3.375 7.24609 5.37891 9.25 7.875 9.25ZM7.875 1.9375C9.42188 1.9375 10.6875 3.20312 10.6875 4.75C10.6875 6.33203 9.42188 7.5625 7.875 7.5625C6.29297 7.5625 5.0625 6.33203 5.0625 4.75C5.0625 3.20312 6.29297 1.9375 7.875 1.9375ZM9.63281 10.9375H6.08203C2.70703 10.9375 0 13.6797 0 17.0547C0 17.7227 0.527344 18.25 1.19531 18.25H14.5195C15.1875 18.25 15.75 17.7227 15.75 17.0547C15.75 13.6797 13.0078 10.9375 9.63281 10.9375ZM1.6875 16.5625C1.93359 14.3828 3.79688 12.625 6.08203 12.625H9.63281C11.918 12.625 13.7461 14.3828 14.0273 16.5625H1.6875ZM16.8398 11.5H14.2383C15.8555 12.8359 16.875 14.8398 16.875 17.0547C16.875 17.5117 16.7344 17.8984 16.5234 18.25H21.375C21.9727 18.25 22.5 17.7578 22.5 17.125C22.5 14.0312 19.9688 11.5 16.8398 11.5ZM15.1875 9.25C17.332 9.25 19.125 7.49219 19.125 5.3125C19.125 3.16797 17.332 1.375 15.1875 1.375C14.2734 1.375 13.4648 1.69141 12.832 2.18359C13.2188 2.95703 13.5 3.83594 13.5 4.75C13.5 6.01562 13.0781 7.17578 12.375 8.08984C13.0781 8.82812 14.0625 9.25 15.1875 9.25Z" fill="#6B7280"/>
</svg>
