<svg width="14" height="12" viewBox="0 0 14 12" fill="none" xmlns="http://www.w3.org/2000/svg">
<path d="M1.96875 0.0625C2.32422 0.0625 2.625 0.363281 2.625 0.71875V2.03125C2.625 2.41406 2.32422 2.6875 1.96875 2.6875V5.09375H3.5C3.5 4.73828 3.77344 4.4375 4.15625 4.4375H5.46875C5.82422 4.4375 6.125 4.73828 6.125 5.09375V6.40625C6.125 6.78906 5.82422 7.0625 5.46875 7.0625H4.15625C3.77344 7.0625 3.5 6.78906 3.5 6.40625H1.96875V9.25C1.96875 9.38672 2.05078 9.46875 2.1875 9.46875H3.5C3.5 9.11328 3.77344 8.8125 4.15625 8.8125H5.46875C5.82422 8.8125 6.125 9.11328 6.125 9.46875V10.7812C6.125 11.1641 5.82422 11.4375 5.46875 11.4375H4.15625C3.77344 11.4375 3.5 11.1641 3.5 10.7812H2.1875C1.33984 10.7812 0.65625 10.0977 0.65625 9.25V2.6875C0.273438 2.6875 0 2.41406 0 2.03125V0.71875C0 0.363281 0.273438 0.0625 0.65625 0.0625H1.96875ZM4.375 1.375C4.375 1.01953 4.64844 0.71875 5.03125 0.71875H13.3438C13.6992 0.71875 14 1.01953 14 1.375C14 1.75781 13.6992 2.03125 13.3438 2.03125H5.03125C4.64844 2.03125 4.375 1.75781 4.375 1.375ZM7.875 5.75C7.875 5.39453 8.14844 5.09375 8.53125 5.09375H13.3438C13.6992 5.09375 14 5.39453 14 5.75C14 6.13281 13.6992 6.40625 13.3438 6.40625H8.53125C8.14844 6.40625 7.875 6.13281 7.875 5.75ZM7.875 10.125C7.875 9.76953 8.14844 9.46875 8.53125 9.46875H13.3438C13.6992 9.46875 14 9.76953 14 10.125C14 10.5078 13.6992 10.7812 13.3438 10.7812H8.53125C8.14844 10.7812 7.875 10.5078 7.875 10.125Z" fill="#191919"/>
</svg>
