<svg width="16" height="14" viewBox="0 0 16 14" fill="none" xmlns="http://www.w3.org/2000/svg">
<path d="M5.78688 12.73C6.45543 12.73 7.00871 12.5675 7.41598 12.25C8.25359 11.5781 8.37654 10.4926 8.47643 9.50316C8.52254 8.92722 8.56865 8.34388 8.76076 7.97468C8.82992 7.84177 8.94518 7.71624 9.09119 7.64979C9.19109 7.60549 9.47541 7.58333 9.81352 7.58333C10.0748 8.57279 11.0123 9.31118 12.1419 9.31857L12.6183 9.34072L13.5789 9.34072L13.5789 8.86076L15.0159 8.86076C15.2695 8.86076 15.5 8.64663 15.5 8.39557C15.5 8.14452 15.2695 7.93776 15.0159 7.93776L13.5789 7.93776L13.5789 6.09177L15.0159 6.09177C15.2695 6.09177 15.5 5.87764 15.5 5.62658C15.5 5.37553 15.2695 5.16878 15.0159 5.16878L13.5789 5.16878L13.5789 4.68144L12.6183 4.68143L12.1419 4.70359C11.02 4.70359 10.0902 5.42722 9.82121 6.40928C9.46773 6.4019 9.17572 6.38713 9.09887 6.3576C8.95287 6.30591 8.82992 6.15084 8.76076 6.02532C8.56865 5.65612 8.52254 5.08017 8.47643 4.50422C8.37654 3.50738 8.25359 2.42194 7.41598 1.75738C7.00871 1.43249 6.45543 1.27004 5.78689 1.27004C5.54098 0.531645 4.82633 -4.66561e-07 3.95799 -5.04517e-07C2.90523 -5.50535e-07 2.03689 0.834388 2.03689 1.84599C2.03689 2.85759 2.90523 3.69198 3.95799 3.69198C4.84939 3.69198 5.59478 3.13819 5.80994 2.37764C6.19416 2.39979 6.50154 2.47363 6.69365 2.62869C7.15471 2.97574 7.24693 3.76582 7.32377 4.59283C7.36988 5.24262 7.43904 5.92933 7.73105 6.46097L4.27305 6.46097C4.02715 5.72257 3.28945 5.16878 2.42111 5.16878C1.36834 5.16878 0.500001 6.00316 0.500001 7.01477C0.500001 8.02637 1.36834 8.86076 2.42111 8.86076C3.28945 8.86076 4.02715 8.32911 4.27305 7.56857L7.71568 7.56857C7.43904 8.09283 7.36988 8.77954 7.32377 9.40717C7.24693 10.2416 7.15471 11.0243 6.69365 11.3713C6.50154 11.5338 6.19416 11.6002 5.80994 11.6224C5.59477 10.8618 4.84938 10.308 3.95799 10.308C2.90523 10.308 2.03689 11.1129 2.03689 12.154C2.03689 13.1951 2.90523 14 3.95799 14C4.82633 14 5.54098 13.4684 5.78688 12.73ZM3.57377 1.84599C3.57377 1.66139 3.76588 1.47679 3.95799 1.47679C4.17316 1.47679 4.34221 1.66139 4.34221 1.84599C4.34221 2.05274 4.17316 2.21519 3.95799 2.21519C3.76588 2.21519 3.57377 2.05274 3.57377 1.84599ZM2.03689 7.01477C2.03689 6.83017 2.229 6.64557 2.42111 6.64557C2.63627 6.64557 2.80533 6.83017 2.80533 7.01477C2.80533 7.22152 2.63627 7.38397 2.42111 7.38397C2.229 7.38397 2.03689 7.22152 2.03689 7.01477ZM3.57377 12.154C3.57377 11.9473 3.76588 11.7848 3.95799 11.7848C4.17316 11.7848 4.34221 11.9473 4.34221 12.154C4.34221 12.3386 4.17316 12.5232 3.95799 12.5232C3.76588 12.5232 3.57377 12.3386 3.57377 12.154Z" fill="#191919"/>
</svg>
