<svg width="30" height="25" viewBox="0 0 30 25" fill="none" xmlns="http://www.w3.org/2000/svg">
<path d="M20.8841 11.3876C20.8841 16.6324 16.6324 20.8841 11.3876 20.8841C6.14275 20.8841 1.891 16.6324 1.891 11.3876C1.891 6.14276 6.14276 1.891 11.3876 1.891C16.6324 1.891 20.8841 6.14275 20.8841 11.3876ZM11.3876 21.8351C17.1576 21.8351 21.8351 17.1576 21.8351 11.3876C21.8351 5.61753 17.1576 0.94 11.3876 0.94C5.61753 0.94 0.94 5.61753 0.94 11.3876C0.94 17.1576 5.61753 21.8351 11.3876 21.8351Z" fill="white" stroke="white" stroke-width="0.12"/>
<path d="M29.5352 15.3164C29.6445 15.5625 29.5625 15.8086 29.3711 16L28.1953 17.0664C28.2227 17.2852 28.25 17.5312 28.25 17.75C28.25 17.9961 28.2227 18.2422 28.1953 18.4609L29.3711 19.5273C29.5625 19.7188 29.6445 19.9648 29.5352 20.2109C29.4258 20.5391 29.2891 20.8398 29.125 21.1406L28.9883 21.3594C28.7969 21.6602 28.6055 21.9609 28.3867 22.2344C28.2227 22.4258 27.9492 22.4805 27.7031 22.3984L26.1992 21.9336C25.8164 22.207 25.4062 22.4258 24.9961 22.6172L24.6406 24.1758C24.5859 24.4219 24.3945 24.6133 24.1484 24.668C23.7656 24.7227 23.3828 24.75 22.9727 24.75C22.5898 24.75 22.207 24.7227 21.8242 24.668C21.5781 24.6133 21.3867 24.4219 21.332 24.1758L20.9766 22.6172C20.5664 22.4258 20.1562 22.207 19.7734 21.9336L18.2695 22.3984C18.0234 22.4805 17.75 22.4258 17.5859 22.2344C17.3672 21.9609 17.1758 21.6602 16.9844 21.3594L16.8477 21.1406C16.6836 20.8398 16.5469 20.5391 16.4375 20.2109C16.3281 19.9648 16.4102 19.7188 16.6016 19.5273L17.7773 18.4609C17.75 18.2422 17.75 17.9961 17.75 17.75C17.75 17.5312 17.75 17.2852 17.7773 17.0664L16.6016 16C16.4102 15.8086 16.3281 15.5625 16.4375 15.3164C16.5469 14.9883 16.6836 14.6875 16.8477 14.3867L16.9844 14.168C17.1758 13.8672 17.3672 13.5664 17.5859 13.293C17.75 13.1016 18.0234 13.0469 18.2695 13.1289L19.7734 13.5938C20.1562 13.3203 20.5664 13.0742 20.9766 12.9102L21.332 11.3516C21.3867 11.1055 21.5781 10.9141 21.8242 10.8594C22.207 10.8047 22.5898 10.75 23 10.75C23.3828 10.75 23.7656 10.8047 24.1484 10.8594C24.3945 10.9141 24.5859 11.1055 24.6406 11.3516L24.9961 12.9102C25.4062 13.0742 25.8164 13.3203 26.1992 13.5938L27.7031 13.1289C27.9492 13.0469 28.2227 13.1016 28.3867 13.293C28.6055 13.5664 28.7969 13.8672 28.9883 14.168L29.125 14.3867C29.2891 14.6875 29.4258 14.9883 29.5352 15.3164ZM23 19.9375C24.2031 19.9375 25.1875 18.9805 25.1875 17.75C25.1875 16.5469 24.2031 15.5625 23 15.5625C21.7695 15.5625 20.8125 16.5469 20.8125 17.75C20.8125 18.9805 21.7695 19.9375 23 19.9375Z" fill="white"/>
<path d="M12.2814 5V7.04471H11.162V5H12.2814ZM12.1433 16.1673V18H11.0312V16.1673H12.1433ZM13.2409 13.9584C13.2409 13.694 13.1828 13.4638 13.0665 13.2678C12.955 13.0672 12.7709 12.8871 12.514 12.7275C12.2572 12.5634 11.9131 12.4107 11.4818 12.2693C10.8615 12.0642 10.3188 11.8339 9.85358 11.5786C9.39322 11.3188 9.03461 10.9996 8.77778 10.6213C8.52579 10.2383 8.39979 9.76188 8.39979 9.192C8.39979 8.63125 8.53548 8.14571 8.80685 7.7354C9.08307 7.32509 9.46591 7.00824 9.95535 6.78485C10.4448 6.56146 11.0166 6.44976 11.6708 6.44976C12.1748 6.44976 12.6279 6.52043 13.0301 6.66176C13.4372 6.80309 13.7837 7.01052 14.0696 7.28406C14.3555 7.5576 14.5736 7.89497 14.7238 8.29616C14.8789 8.69279 14.9564 9.14869 14.9564 9.66386H13.2118C13.2118 9.37209 13.1755 9.11222 13.1028 8.88427C13.035 8.65176 12.9332 8.45572 12.7975 8.29616C12.6618 8.13204 12.4971 8.00666 12.3032 7.92004C12.1142 7.83342 11.8986 7.79011 11.6563 7.79011C11.3122 7.79011 11.0287 7.85166 10.8058 7.97475C10.5829 8.09328 10.4181 8.25741 10.3115 8.46712C10.2098 8.67684 10.1589 8.91618 10.1589 9.18517C10.1589 9.44503 10.2122 9.67298 10.3188 9.86902C10.4254 10.0651 10.6071 10.2429 10.864 10.4024C11.1256 10.5574 11.4843 10.7147 11.9398 10.8743C12.5649 11.084 13.1052 11.3188 13.5607 11.5786C14.0211 11.8339 14.3749 12.1508 14.622 12.5292C14.874 12.903 15 13.3749 15 13.9448C15 14.5329 14.8546 15.0321 14.5639 15.4424C14.278 15.8527 13.8757 16.165 13.3572 16.3793C12.8435 16.589 12.2451 16.6938 11.5618 16.6938C11.1305 16.6938 10.7016 16.6414 10.2752 16.5366C9.85358 16.4271 9.47075 16.2493 9.12669 16.0032C8.78262 15.757 8.50883 15.431 8.3053 15.0252C8.10177 14.6149 8 14.1134 8 13.5208H9.75909C9.75909 13.8764 9.80997 14.1727 9.91173 14.4098C10.0135 14.6469 10.1516 14.8338 10.3261 14.9705C10.5005 15.1073 10.6944 15.2053 10.9076 15.2646C11.1256 15.3239 11.3437 15.3535 11.5618 15.3535C11.9252 15.3535 12.2305 15.2965 12.4777 15.1825C12.7297 15.064 12.9187 14.8999 13.0447 14.6902C13.1755 14.4759 13.2409 14.232 13.2409 13.9584Z" fill="white"/>
</svg>
